# 3ds Max Wavefront OBJ Exporter v0.97b - (c)2007 guruware
# File Created: 07.12.2016 18:04:32

mtllib boxes.mtl

#
# object BoxSingle
#

v  1.0000 0.0000 -0.5001
v  1.0000 0.0000 -2.0001
v  2.0000 0.0000 -2.0001
v  2.0000 0.0000 -0.5001
v  1.0000 1.5000 -0.5001
v  2.0000 1.5000 -0.5001
v  2.0000 1.5000 -2.0001
v  1.0000 1.5000 -2.0001
# 8 vertices

vn 0.0000 -1.0000 -0.0000
vn 0.0000 1.0000 -0.0000
vn 0.0000 0.0000 1.0000
vn 1.0000 0.0000 -0.0000
vn 0.0000 0.0000 -1.0000
vn -1.0000 0.0000 -0.0000
# 6 vertex normals

vt 1.0000 0.0000 0.0000
vt 1.0000 1.0000 0.0000
vt 0.0000 1.0000 0.0000
vt 0.0000 0.0000 0.0000
# 4 texture coords

g BoxSingle
usemtl Material__17
s 2
f 1/1/1 2/2/1 3/3/1 4/4/1 
s 4
f 5/4/2 6/1/2 7/2/2 8/3/2 
s 8
f 1/4/3 4/1/3 6/2/3 5/3/3 
s 16
f 4/4/4 3/1/4 7/2/4 6/3/4 
s 32
f 3/4/5 2/1/5 8/2/5 7/3/5 
s 64
f 2/4/6 1/1/6 5/2/6 8/3/6 
# 6 polygons

#
# object BoxAttach
#

v  -2.0000 0.0000 0.5000
v  -2.0000 0.0000 0.0015
v  -1.5015 0.0000 0.0015
v  -1.5015 0.0000 0.5000
v  -2.0000 0.4985 0.5000
v  -1.5015 0.4985 0.5000
v  -1.5015 0.4985 0.0015
v  -2.0000 0.4985 0.0015
v  -2.0000 0.0000 -0.9954
v  -2.0000 0.0000 -1.9923
v  -1.0031 0.0000 -1.9923
v  -1.0031 0.0000 -0.9954
v  -2.0000 0.9969 -0.9954
v  -1.0031 0.9969 -0.9954
v  -1.0031 0.9969 -1.9923
v  -2.0000 0.9969 -1.9923
# 16 vertices

vn 0.0000 -1.0000 -0.0000
vn 0.0000 1.0000 -0.0000
vn 0.0000 0.0000 1.0000
vn 1.0000 0.0000 -0.0000
vn 0.0000 0.0000 -1.0000
vn -1.0000 0.0000 -0.0000
# 6 vertex normals

vt 1.0000 0.0000 0.0000
vt 1.0000 1.0000 0.0000
vt 0.0000 1.0000 0.0000
vt 0.0000 0.0000 0.0000
# 4 texture coords

g BoxAttach
usemtl Material__14
s 2
f 9/5/7 10/6/7 11/7/7 12/8/7 
s 4
f 13/8/8 14/5/8 15/6/8 16/7/8 
s 8
f 9/8/9 12/5/9 14/6/9 13/7/9 
s 16
f 12/8/10 11/5/10 15/6/10 14/7/10 
s 32
f 11/8/11 10/5/11 16/6/11 15/7/11 
s 64
f 10/8/12 9/5/12 13/6/12 16/7/12 
usemtl Material__13
s 2
f 17/5/7 18/6/7 19/7/7 20/8/7 
s 4
f 21/8/8 22/5/8 23/6/8 24/7/8 
s 8
f 17/8/9 20/5/9 22/6/9 21/7/9 
s 16
f 20/8/10 19/5/10 23/6/10 22/7/10 
s 32
f 19/8/11 18/5/11 24/6/11 23/7/11 
s 64
f 18/8/12 17/5/12 21/6/12 24/7/12 
# 12 polygons

#
# object BoxG2
#

v  -1.4985 0.0000 1.9985
v  -1.4985 0.0000 1.0015
v  -0.5015 0.0000 1.0015
v  -0.5015 0.0000 1.9985
v  -1.4985 0.9969 1.9985
v  -0.5015 0.9969 1.9985
v  -0.5015 0.9969 1.0015
v  -1.4985 0.9969 1.0015
# 8 vertices

vn 0.0000 -1.0000 -0.0000
vn 0.0000 1.0000 -0.0000
vn 0.0000 0.0000 1.0000
vn 1.0000 0.0000 -0.0000
vn 0.0000 0.0000 -1.0000
vn -1.0000 0.0000 -0.0000
# 6 vertex normals

vt 1.0000 0.0000 0.0000
vt 1.0000 1.0000 0.0000
vt 0.0000 1.0000 0.0000
vt 0.0000 0.0000 0.0000
# 4 texture coords

g BoxG2
usemtl Material__15
s 2
f 25/9/13 26/10/13 27/11/13 28/12/13 
s 4
f 29/12/14 30/9/14 31/10/14 32/11/14 
s 8
f 25/12/15 28/9/15 30/10/15 29/11/15 
s 16
f 28/12/16 27/9/16 31/10/16 30/11/16 
s 32
f 27/12/17 26/9/17 32/10/17 31/11/17 
s 64
f 26/12/18 25/9/18 29/10/18 32/11/18 
# 6 polygons

#
# object BoxG2
#

v  0.5015 0.0000 1.9985
v  0.5015 0.0000 1.0015
v  1.4985 0.0000 1.0015
v  1.4985 0.0000 1.9985
v  0.5015 0.9969 1.9985
v  1.4985 0.9969 1.9985
v  1.4985 0.9969 1.0015
v  0.5015 0.9969 1.0015
# 8 vertices

vn 0.0000 -1.0000 -0.0000
vn 0.0000 1.0000 -0.0000
vn 0.0000 0.0000 1.0000
vn 1.0000 0.0000 -0.0000
vn 0.0000 0.0000 -1.0000
vn -1.0000 0.0000 -0.0000
# 6 vertex normals

vt 1.0000 0.0000 0.0000
vt 1.0000 1.0000 0.0000
vt 0.0000 1.0000 0.0000
vt 0.0000 0.0000 0.0000
# 4 texture coords

g BoxG2
usemtl Material__16
s 2
f 33/13/19 34/14/19 35/15/19 36/16/19 
s 4
f 37/16/20 38/13/20 39/14/20 40/15/20 
s 8
f 33/16/21 36/13/21 38/14/21 37/15/21 
s 16
f 36/16/22 35/13/22 39/14/22 38/15/22 
s 32
f 35/16/23 34/13/23 40/14/23 39/15/23 
s 64
f 34/16/24 33/13/24 37/14/24 40/15/24 
# 6 polygons

