<?xml version="1.0" encoding="UTF-8" standalone="no"?>
<svg width="30px" height="26px" viewBox="0 0 30 26" version="1.1" xmlns="http://www.w3.org/2000/svg" xmlns:xlink="http://www.w3.org/1999/xlink" xmlns:sketch="http://www.bohemiancoding.com/sketch/ns">
    <!-- Generator: Sketch 3.3.3 (12072) - http://www.bohemiancoding.com/sketch -->
    <title>back copy</title>
    <desc>Created with Sketch.</desc>
    <defs></defs>
    <g id="Page-1" stroke="none" stroke-width="1" fill="none" fill-rule="evenodd" sketch:type="MSPage">
        <g id="space1" sketch:type="MSArtboardGroup" transform="translate(-2053.000000, -450.000000)" fill="#FFFFFF" opacity="0.219041511">
            <g id="back-+-back-copy-+-back-+-back-copy-2" sketch:type="MSLayerGroup" transform="translate(1509.000000, 175.000000)">
                <g id="back-+-back-copy" transform="translate(0.000000, 275.000000)" sketch:type="MSShapeGroup">
                    <path d="M548.933659,14.5118438 L557.091705,22.7490824 C557.728693,23.3923835 557.728693,24.4350938 557.091705,25.0789688 C556.452994,25.7222699 555.420614,25.7222699 554.783051,25.0789688 L544.011631,14.203679 C543.780364,13.9701165 543.662722,13.6803153 543.599597,13.3796108 C543.568608,13.2786108 543.547949,13.1735938 543.539341,13.0645597 C543.533602,13.0002869 543.525568,12.9715938 543.525568,12.9406051 C543.525568,12.7609858 543.565165,12.5899744 543.624273,12.4281449 C543.698875,12.1744972 543.813648,11.9317528 544.011631,11.7309006 L554.783051,0.85790625 C555.420614,0.21403125 556.452994,0.21403125 557.091705,0.85790625 C557.728693,1.50120739 557.728693,2.54449148 557.091705,3.18779261 L548.985307,11.3705142 L571.70629,11.3705142 C572.623324,11.3705142 573.366477,12.074071 573.366477,12.9406051 C573.366477,13.8082869 572.623324,14.5118438 571.70629,14.5118438 L548.933659,14.5118438" id="back-copy" transform="translate(558.732955, 13.000000) rotate(-180.000000) translate(-558.732955, -13.000000) "></path>
                </g>
            </g>
        </g>
    </g>
</svg>