# 3ds Max Wavefront OBJ Exporter v0.97b - (c)2007 guruware
# File Created: 05.01.2017 12:26:59

mtllib apples.mtl

#
# object apple_06
#

v  1.4261 0.4737 0.0675
v  1.4261 0.4660 0.0438
v  1.4121 0.4660 0.0483
v  1.4035 0.4660 0.0602
v  1.4035 0.4660 0.0748
v  1.4121 0.4660 0.0867
v  1.4261 0.4660 0.0912
v  1.4400 0.4660 0.0867
v  1.4487 0.4660 0.0748
v  1.4487 0.4660 0.0602
v  1.4400 0.4660 0.0483
v  1.4035 0.4458 0.0364
v  1.4261 0.4458 0.0291
v  1.3896 0.4458 0.0556
v  1.3896 0.4458 0.0794
v  1.4035 0.4458 0.0986
v  1.4261 0.4458 0.1059
v  1.4487 0.4458 0.0986
v  1.4626 0.4458 0.0794
v  1.4626 0.4458 0.0556
v  1.4487 0.4458 0.0364
v  1.4035 0.4208 0.0364
v  1.4261 0.4208 0.0291
v  1.3896 0.4208 0.0556
v  1.3896 0.4208 0.0794
v  1.4035 0.4208 0.0986
v  1.4261 0.4208 0.1059
v  1.4487 0.4208 0.0986
v  1.4626 0.4208 0.0794
v  1.4626 0.4208 0.0556
v  1.4487 0.4208 0.0364
v  1.4121 0.4006 0.0483
v  1.4261 0.4006 0.0438
v  1.4035 0.4006 0.0602
v  1.4035 0.4006 0.0748
v  1.4121 0.4006 0.0867
v  1.4261 0.4006 0.0912
v  1.4400 0.4006 0.0867
v  1.4487 0.4006 0.0748
v  1.4487 0.4006 0.0602
v  1.4400 0.4006 0.0483
v  1.4261 0.3929 0.0675
# 42 vertices

vn -0.0000 1.0000 0.0000
vn -0.0000 0.7804 -0.6252
vn -0.3675 0.7804 -0.5058
vn -0.5946 0.7804 -0.1932
vn -0.5946 0.7804 0.1932
vn -0.3675 0.7804 0.5058
vn -0.0000 0.7804 0.6252
vn 0.3675 0.7804 0.5058
vn 0.5946 0.7804 0.1932
vn 0.5946 0.7804 -0.1932
vn 0.3675 0.7804 -0.5058
vn -0.5621 0.2925 -0.7736
vn -0.0000 0.2925 -0.9563
vn -0.9095 0.2925 -0.2955
vn -0.9095 0.2925 0.2955
vn -0.5621 0.2925 0.7736
vn 0.0000 0.2925 0.9563
vn 0.5621 0.2925 0.7736
vn 0.9095 0.2925 0.2955
vn 0.9095 0.2925 -0.2955
vn 0.5621 0.2925 -0.7736
vn -0.5621 -0.2925 -0.7736
vn -0.0000 -0.2925 -0.9563
vn -0.9095 -0.2925 -0.2955
vn -0.9095 -0.2925 0.2955
vn -0.5621 -0.2925 0.7736
vn -0.0000 -0.2925 0.9563
vn 0.5621 -0.2925 0.7736
vn 0.9095 -0.2925 0.2955
vn 0.9095 -0.2925 -0.2955
vn 0.5621 -0.2925 -0.7736
vn -0.3675 -0.7804 -0.5058
vn -0.0000 -0.7804 -0.6252
vn -0.5946 -0.7804 -0.1932
vn -0.5946 -0.7804 0.1932
vn -0.3675 -0.7804 0.5058
vn -0.0000 -0.7804 0.6252
vn 0.3675 -0.7804 0.5058
vn 0.5946 -0.7804 0.1932
vn 0.5946 -0.7804 -0.1932
vn 0.3675 -0.7804 -0.5058
vn 0.0000 -1.0000 -0.0000
# 42 vertex normals

g apple_06
usemtl Material__12807
s 1
f 1//1 2//2 3//3 
f 1//1 3//3 4//4 
f 1//1 4//4 5//5 
f 1//1 5//5 6//6 
f 1//1 6//6 7//7 
f 1//1 7//7 8//8 
f 1//1 8//8 9//9 
f 1//1 9//9 10//10 
f 1//1 10//10 11//11 
f 1//1 11//11 2//2 
f 12//12 3//3 2//2 13//13 
f 14//14 4//4 3//3 12//12 
f 15//15 5//5 4//4 14//14 
f 16//16 6//6 5//5 15//15 
f 17//17 7//7 6//6 16//16 
f 18//18 8//8 7//7 17//17 
f 19//19 9//9 8//8 18//18 
f 20//20 10//10 9//9 19//19 
f 21//21 11//11 10//10 20//20 
f 13//13 2//2 11//11 21//21 
f 22//22 12//12 13//13 23//23 
f 24//24 14//14 12//12 22//22 
f 25//25 15//15 14//14 24//24 
f 26//26 16//16 15//15 25//25 
f 27//27 17//17 16//16 26//26 
f 28//28 18//18 17//17 27//27 
f 29//29 19//19 18//18 28//28 
f 30//30 20//20 19//19 29//29 
f 31//31 21//21 20//20 30//30 
f 23//23 13//13 21//21 31//31 
f 32//32 22//22 23//23 33//33 
f 34//34 24//24 22//22 32//32 
f 35//35 25//25 24//24 34//34 
f 36//36 26//26 25//25 35//35 
f 37//37 27//27 26//26 36//36 
f 38//38 28//28 27//27 37//37 
f 39//39 29//29 28//28 38//38 
f 40//40 30//30 29//29 39//39 
f 41//41 31//31 30//30 40//40 
f 33//33 23//23 31//31 41//41 
f 42//42 32//32 33//33 
f 42//42 34//34 32//32 
f 42//42 35//35 34//34 
f 42//42 36//36 35//35 
f 42//42 37//37 36//36 
f 42//42 38//38 37//37 
f 42//42 39//39 38//38 
f 42//42 40//40 39//39 
f 42//42 41//41 40//40 
f 42//42 33//33 41//41 
# 30 polygons - 20 triangles

#
# object apple_05
#

v  1.4934 0.4884 0.1002
v  1.4934 0.4795 0.0729
v  1.4773 0.4795 0.0781
v  1.4674 0.4795 0.0918
v  1.4674 0.4795 0.1087
v  1.4773 0.4795 0.1224
v  1.4934 0.4795 0.1276
v  1.5095 0.4795 0.1224
v  1.5194 0.4795 0.1087
v  1.5194 0.4795 0.0918
v  1.5095 0.4795 0.0781
v  1.4674 0.4562 0.0645
v  1.4934 0.4562 0.0560
v  1.4513 0.4562 0.0866
v  1.4513 0.4562 0.1139
v  1.4674 0.4562 0.1360
v  1.4934 0.4562 0.1445
v  1.5194 0.4562 0.1360
v  1.5355 0.4562 0.1139
v  1.5355 0.4562 0.0866
v  1.5194 0.4562 0.0645
v  1.4674 0.4275 0.0645
v  1.4934 0.4275 0.0560
v  1.4513 0.4275 0.0866
v  1.4513 0.4275 0.1139
v  1.4674 0.4275 0.1360
v  1.4934 0.4275 0.1445
v  1.5194 0.4275 0.1360
v  1.5355 0.4275 0.1139
v  1.5355 0.4275 0.0866
v  1.5194 0.4275 0.0645
v  1.4773 0.4042 0.0781
v  1.4934 0.4042 0.0729
v  1.4674 0.4042 0.0918
v  1.4674 0.4042 0.1087
v  1.4773 0.4042 0.1224
v  1.4934 0.4042 0.1276
v  1.5095 0.4042 0.1224
v  1.5194 0.4042 0.1087
v  1.5194 0.4042 0.0918
v  1.5095 0.4042 0.0781
v  1.4934 0.3953 0.1002
# 42 vertices

vn -0.0000 1.0000 0.0000
vn -0.0000 0.7804 -0.6252
vn -0.3675 0.7804 -0.5058
vn -0.5946 0.7804 -0.1932
vn -0.5946 0.7804 0.1932
vn -0.3675 0.7804 0.5058
vn 0.0000 0.7804 0.6252
vn 0.3675 0.7804 0.5058
vn 0.5946 0.7804 0.1932
vn 0.5946 0.7804 -0.1932
vn 0.3675 0.7804 -0.5058
vn -0.5621 0.2925 -0.7736
vn -0.0000 0.2925 -0.9563
vn -0.9095 0.2925 -0.2955
vn -0.9095 0.2925 0.2955
vn -0.5621 0.2925 0.7736
vn 0.0000 0.2925 0.9563
vn 0.5621 0.2925 0.7736
vn 0.9095 0.2925 0.2955
vn 0.9095 0.2925 -0.2955
vn 0.5621 0.2925 -0.7736
vn -0.5621 -0.2925 -0.7736
vn -0.0000 -0.2925 -0.9563
vn -0.9095 -0.2925 -0.2955
vn -0.9095 -0.2925 0.2955
vn -0.5621 -0.2925 0.7736
vn 0.0000 -0.2925 0.9563
vn 0.5621 -0.2925 0.7736
vn 0.9095 -0.2925 0.2955
vn 0.9095 -0.2925 -0.2955
vn 0.5621 -0.2925 -0.7736
vn -0.3675 -0.7804 -0.5058
vn -0.0000 -0.7804 -0.6252
vn -0.5946 -0.7804 -0.1932
vn -0.5946 -0.7804 0.1932
vn -0.3675 -0.7804 0.5058
vn -0.0000 -0.7804 0.6252
vn 0.3675 -0.7804 0.5058
vn 0.5946 -0.7804 0.1932
vn 0.5946 -0.7804 -0.1932
vn 0.3675 -0.7804 -0.5058
vn -0.0000 -1.0000 -0.0000
# 42 vertex normals

g apple_05
usemtl Material__12807
s 1
f 43//43 44//44 45//45 
f 43//43 45//45 46//46 
f 43//43 46//46 47//47 
f 43//43 47//47 48//48 
f 43//43 48//48 49//49 
f 43//43 49//49 50//50 
f 43//43 50//50 51//51 
f 43//43 51//51 52//52 
f 43//43 52//52 53//53 
f 43//43 53//53 44//44 
f 54//54 45//45 44//44 55//55 
f 56//56 46//46 45//45 54//54 
f 57//57 47//47 46//46 56//56 
f 58//58 48//48 47//47 57//57 
f 59//59 49//49 48//48 58//58 
f 60//60 50//50 49//49 59//59 
f 61//61 51//51 50//50 60//60 
f 62//62 52//52 51//51 61//61 
f 63//63 53//53 52//52 62//62 
f 55//55 44//44 53//53 63//63 
f 64//64 54//54 55//55 65//65 
f 66//66 56//56 54//54 64//64 
f 67//67 57//57 56//56 66//66 
f 68//68 58//58 57//57 67//67 
f 69//69 59//59 58//58 68//68 
f 70//70 60//60 59//59 69//69 
f 71//71 61//61 60//60 70//70 
f 72//72 62//62 61//61 71//71 
f 73//73 63//63 62//62 72//72 
f 65//65 55//55 63//63 73//73 
f 74//74 64//64 65//65 75//75 
f 76//76 66//66 64//64 74//74 
f 77//77 67//67 66//66 76//76 
f 78//78 68//68 67//67 77//77 
f 79//79 69//69 68//68 78//78 
f 80//80 70//70 69//69 79//79 
f 81//81 71//71 70//70 80//80 
f 82//82 72//72 71//71 81//81 
f 83//83 73//73 72//72 82//82 
f 75//75 65//65 73//73 83//83 
f 84//84 74//74 75//75 
f 84//84 76//76 74//74 
f 84//84 77//77 76//76 
f 84//84 78//78 77//77 
f 84//84 79//79 78//78 
f 84//84 80//80 79//79 
f 84//84 81//81 80//80 
f 84//84 82//82 81//81 
f 84//84 83//83 82//82 
f 84//84 75//75 83//83 
# 30 polygons - 20 triangles

#
# object apple_04
#

v  1.4452 0.4498 0.1375
v  1.4452 0.4428 0.1160
v  1.4325 0.4428 0.1201
v  1.4247 0.4428 0.1309
v  1.4247 0.4428 0.1442
v  1.4325 0.4428 0.1550
v  1.4452 0.4428 0.1591
v  1.4579 0.4428 0.1550
v  1.4658 0.4428 0.1442
v  1.4658 0.4428 0.1309
v  1.4579 0.4428 0.1201
v  1.4247 0.4245 0.1093
v  1.4452 0.4245 0.1026
v  1.4120 0.4245 0.1267
v  1.4120 0.4245 0.1483
v  1.4247 0.4245 0.1658
v  1.4452 0.4245 0.1725
v  1.4658 0.4245 0.1658
v  1.4784 0.4245 0.1483
v  1.4784 0.4245 0.1267
v  1.4658 0.4245 0.1093
v  1.4247 0.4018 0.1093
v  1.4452 0.4018 0.1026
v  1.4120 0.4018 0.1267
v  1.4120 0.4018 0.1483
v  1.4247 0.4018 0.1658
v  1.4452 0.4018 0.1725
v  1.4658 0.4018 0.1658
v  1.4784 0.4018 0.1483
v  1.4784 0.4018 0.1267
v  1.4658 0.4018 0.1093
v  1.4325 0.3834 0.1201
v  1.4452 0.3834 0.1160
v  1.4247 0.3834 0.1309
v  1.4247 0.3834 0.1442
v  1.4325 0.3834 0.1550
v  1.4452 0.3834 0.1591
v  1.4579 0.3834 0.1550
v  1.4658 0.3834 0.1442
v  1.4658 0.3834 0.1309
v  1.4579 0.3834 0.1201
v  1.4452 0.3764 0.1375
# 42 vertices

vn -0.0000 1.0000 0.0000
vn -0.0000 0.7804 -0.6252
vn -0.3675 0.7804 -0.5058
vn -0.5946 0.7804 -0.1932
vn -0.5946 0.7804 0.1932
vn -0.3675 0.7804 0.5058
vn 0.0000 0.7804 0.6252
vn 0.3675 0.7804 0.5058
vn 0.5946 0.7804 0.1932
vn 0.5946 0.7804 -0.1932
vn 0.3675 0.7804 -0.5058
vn -0.5621 0.2925 -0.7736
vn -0.0000 0.2925 -0.9563
vn -0.9095 0.2925 -0.2955
vn -0.9095 0.2925 0.2955
vn -0.5621 0.2925 0.7736
vn 0.0000 0.2925 0.9563
vn 0.5621 0.2925 0.7736
vn 0.9095 0.2925 0.2955
vn 0.9095 0.2925 -0.2955
vn 0.5621 0.2925 -0.7736
vn -0.5621 -0.2925 -0.7736
vn -0.0000 -0.2925 -0.9563
vn -0.9095 -0.2925 -0.2955
vn -0.9095 -0.2925 0.2955
vn -0.5621 -0.2925 0.7736
vn -0.0000 -0.2925 0.9563
vn 0.5621 -0.2925 0.7736
vn 0.9095 -0.2925 0.2955
vn 0.9095 -0.2925 -0.2955
vn 0.5621 -0.2925 -0.7736
vn -0.3675 -0.7804 -0.5058
vn -0.0000 -0.7804 -0.6252
vn -0.5946 -0.7804 -0.1932
vn -0.5946 -0.7804 0.1932
vn -0.3675 -0.7804 0.5058
vn -0.0000 -0.7804 0.6252
vn 0.3675 -0.7804 0.5058
vn 0.5946 -0.7804 0.1932
vn 0.5946 -0.7804 -0.1932
vn 0.3675 -0.7804 -0.5058
vn 0.0000 -1.0000 0.0000
# 42 vertex normals

g apple_04
usemtl Material__12807
s 1
f 85//85 86//86 87//87 
f 85//85 87//87 88//88 
f 85//85 88//88 89//89 
f 85//85 89//89 90//90 
f 85//85 90//90 91//91 
f 85//85 91//91 92//92 
f 85//85 92//92 93//93 
f 85//85 93//93 94//94 
f 85//85 94//94 95//95 
f 85//85 95//95 86//86 
f 96//96 87//87 86//86 97//97 
f 98//98 88//88 87//87 96//96 
f 99//99 89//89 88//88 98//98 
f 100//100 90//90 89//89 99//99 
f 101//101 91//91 90//90 100//100 
f 102//102 92//92 91//91 101//101 
f 103//103 93//93 92//92 102//102 
f 104//104 94//94 93//93 103//103 
f 105//105 95//95 94//94 104//104 
f 97//97 86//86 95//95 105//105 
f 106//106 96//96 97//97 107//107 
f 108//108 98//98 96//96 106//106 
f 109//109 99//99 98//98 108//108 
f 110//110 100//100 99//99 109//109 
f 111//111 101//101 100//100 110//110 
f 112//112 102//102 101//101 111//111 
f 113//113 103//103 102//102 112//112 
f 114//114 104//104 103//103 113//113 
f 115//115 105//105 104//104 114//114 
f 107//107 97//97 105//105 115//115 
f 116//116 106//106 107//107 117//117 
f 118//118 108//108 106//106 116//116 
f 119//119 109//109 108//108 118//118 
f 120//120 110//110 109//109 119//119 
f 121//121 111//111 110//110 120//120 
f 122//122 112//112 111//111 121//121 
f 123//123 113//113 112//112 122//122 
f 124//124 114//114 113//113 123//123 
f 125//125 115//115 114//114 124//124 
f 117//117 107//107 115//115 125//125 
f 126//126 116//116 117//117 
f 126//126 118//118 116//116 
f 126//126 119//119 118//118 
f 126//126 120//120 119//119 
f 126//126 121//121 120//120 
f 126//126 122//122 121//121 
f 126//126 123//123 122//122 
f 126//126 124//124 123//123 
f 126//126 125//125 124//124 
f 126//126 117//117 125//125 
# 30 polygons - 20 triangles

#
# object apple_02
#

v  1.4085 0.5021 0.1325
v  1.4044 0.4942 0.1052
v  1.3902 0.5016 0.1104
v  1.3814 0.5062 0.1241
v  1.3814 0.5062 0.1410
v  1.3902 0.5016 0.1546
v  1.4044 0.4942 0.1599
v  1.4187 0.4868 0.1546
v  1.4275 0.4822 0.1410
v  1.4275 0.4822 0.1241
v  1.4187 0.4868 0.1104
v  1.3706 0.4856 0.0968
v  1.3937 0.4736 0.0883
v  1.3564 0.4930 0.1189
v  1.3564 0.4930 0.1462
v  1.3706 0.4856 0.1683
v  1.3937 0.4736 0.1768
v  1.4167 0.4616 0.1683
v  1.4310 0.4541 0.1462
v  1.4310 0.4541 0.1189
v  1.4167 0.4616 0.0968
v  1.3574 0.4601 0.0968
v  1.3804 0.4481 0.0883
v  1.3431 0.4675 0.1189
v  1.3431 0.4675 0.1462
v  1.3574 0.4601 0.1683
v  1.3804 0.4481 0.1768
v  1.4035 0.4361 0.1683
v  1.4177 0.4286 0.1462
v  1.4177 0.4286 0.1189
v  1.4035 0.4361 0.0968
v  1.3554 0.4349 0.1104
v  1.3697 0.4274 0.1052
v  1.3466 0.4395 0.1241
v  1.3466 0.4395 0.1410
v  1.3554 0.4349 0.1546
v  1.3697 0.4274 0.1599
v  1.3839 0.4200 0.1546
v  1.3927 0.4154 0.1410
v  1.3927 0.4154 0.1241
v  1.3839 0.4200 0.1104
v  1.3656 0.4196 0.1325
# 42 vertices

vn 0.4617 0.8870 0.0000
vn 0.3604 0.6923 -0.6252
vn 0.0344 0.8620 -0.5058
vn -0.1671 0.9668 -0.1932
vn -0.1671 0.9668 0.1932
vn 0.0344 0.8620 0.5058
vn 0.3604 0.6923 0.6252
vn 0.6863 0.5226 0.5058
vn 0.8878 0.4177 0.1932
vn 0.8878 0.4177 -0.1932
vn 0.6863 0.5226 -0.5058
vn -0.3635 0.5190 -0.7736
vn 0.1351 0.2594 -0.9563
vn -0.6717 0.6794 -0.2955
vn -0.6717 0.6794 0.2955
vn -0.3635 0.5190 0.7736
vn 0.1351 0.2594 0.9563
vn 0.6336 -0.0001 0.7736
vn 0.9418 -0.1605 0.2955
vn 0.9418 -0.1605 -0.2955
vn 0.6336 -0.0001 -0.7736
vn -0.6336 0.0001 -0.7736
vn -0.1351 -0.2594 -0.9563
vn -0.9418 0.1605 -0.2955
vn -0.9418 0.1605 0.2955
vn -0.6336 0.0001 0.7736
vn -0.1351 -0.2594 0.9563
vn 0.3635 -0.5190 0.7736
vn 0.6717 -0.6794 0.2955
vn 0.6717 -0.6794 -0.2955
vn 0.3635 -0.5190 -0.7736
vn -0.6863 -0.5226 -0.5058
vn -0.3604 -0.6923 -0.6252
vn -0.8878 -0.4177 -0.1932
vn -0.8878 -0.4177 0.1932
vn -0.6863 -0.5226 0.5058
vn -0.3604 -0.6923 0.6252
vn -0.0344 -0.8620 0.5058
vn 0.1671 -0.9668 0.1932
vn 0.1671 -0.9668 -0.1932
vn -0.0344 -0.8620 -0.5058
vn -0.4617 -0.8870 -0.0000
# 42 vertex normals

g apple_02
usemtl Material__12807
s 1
f 127//127 128//128 129//129 
f 127//127 129//129 130//130 
f 127//127 130//130 131//131 
f 127//127 131//131 132//132 
f 127//127 132//132 133//133 
f 127//127 133//133 134//134 
f 127//127 134//134 135//135 
f 127//127 135//135 136//136 
f 127//127 136//136 137//137 
f 127//127 137//137 128//128 
f 138//138 129//129 128//128 139//139 
f 140//140 130//130 129//129 138//138 
f 141//141 131//131 130//130 140//140 
f 142//142 132//132 131//131 141//141 
f 143//143 133//133 132//132 142//142 
f 144//144 134//134 133//133 143//143 
f 145//145 135//135 134//134 144//144 
f 146//146 136//136 135//135 145//145 
f 147//147 137//137 136//136 146//146 
f 139//139 128//128 137//137 147//147 
f 148//148 138//138 139//139 149//149 
f 150//150 140//140 138//138 148//148 
f 151//151 141//141 140//140 150//150 
f 152//152 142//142 141//141 151//151 
f 153//153 143//143 142//142 152//152 
f 154//154 144//144 143//143 153//153 
f 155//155 145//145 144//144 154//154 
f 156//156 146//146 145//145 155//155 
f 157//157 147//147 146//146 156//156 
f 149//149 139//139 147//147 157//157 
f 158//158 148//148 149//149 159//159 
f 160//160 150//150 148//148 158//158 
f 161//161 151//151 150//150 160//160 
f 162//162 152//152 151//151 161//161 
f 163//163 153//153 152//152 162//162 
f 164//164 154//154 153//153 163//163 
f 165//165 155//155 154//154 164//164 
f 166//166 156//156 155//155 165//165 
f 167//167 157//157 156//156 166//166 
f 159//159 149//149 157//157 167//167 
f 168//168 158//158 159//159 
f 168//168 160//160 158//158 
f 168//168 161//161 160//160 
f 168//168 162//162 161//161 
f 168//168 163//163 162//162 
f 168//168 164//164 163//163 
f 168//168 165//165 164//164 
f 168//168 166//166 165//165 
f 168//168 167//167 166//166 
f 168//168 159//159 167//167 
# 30 polygons - 20 triangles

#
# object apple_01
#

v  1.4995 0.4861 0.1699
v  1.4962 0.4799 0.1483
v  1.4850 0.4857 0.1524
v  1.4780 0.4894 0.1632
v  1.4780 0.4894 0.1765
v  1.4850 0.4857 0.1873
v  1.4962 0.4799 0.1914
v  1.5075 0.4740 0.1873
v  1.5144 0.4704 0.1765
v  1.5144 0.4704 0.1632
v  1.5075 0.4740 0.1524
v  1.4696 0.4731 0.1416
v  1.4878 0.4636 0.1349
v  1.4583 0.4789 0.1591
v  1.4583 0.4789 0.1806
v  1.4696 0.4731 0.1981
v  1.4878 0.4636 0.2048
v  1.5060 0.4541 0.1981
v  1.5172 0.4483 0.1806
v  1.5172 0.4483 0.1591
v  1.5060 0.4541 0.1416
v  1.4591 0.4530 0.1416
v  1.4773 0.4435 0.1349
v  1.4478 0.4588 0.1591
v  1.4478 0.4588 0.1806
v  1.4591 0.4530 0.1981
v  1.4773 0.4435 0.2048
v  1.4955 0.4340 0.1981
v  1.5067 0.4281 0.1806
v  1.5067 0.4281 0.1591
v  1.4955 0.4340 0.1416
v  1.4576 0.4330 0.1524
v  1.4688 0.4272 0.1483
v  1.4506 0.4367 0.1632
v  1.4506 0.4367 0.1765
v  1.4576 0.4330 0.1873
v  1.4688 0.4272 0.1914
v  1.4801 0.4213 0.1873
v  1.4870 0.4177 0.1765
v  1.4870 0.4177 0.1632
v  1.4801 0.4213 0.1524
v  1.4656 0.4210 0.1699
# 42 vertices

vn 0.4617 0.8870 0.0000
vn 0.3604 0.6923 -0.6252
vn 0.0344 0.8620 -0.5058
vn -0.1671 0.9668 -0.1932
vn -0.1671 0.9668 0.1932
vn 0.0344 0.8620 0.5058
vn 0.3604 0.6923 0.6252
vn 0.6863 0.5226 0.5058
vn 0.8878 0.4177 0.1932
vn 0.8878 0.4177 -0.1932
vn 0.6863 0.5226 -0.5058
vn -0.3635 0.5190 -0.7736
vn 0.1351 0.2594 -0.9563
vn -0.6717 0.6794 -0.2955
vn -0.6717 0.6794 0.2955
vn -0.3635 0.5190 0.7736
vn 0.1351 0.2594 0.9563
vn 0.6336 -0.0001 0.7736
vn 0.9418 -0.1605 0.2955
vn 0.9418 -0.1605 -0.2955
vn 0.6336 -0.0001 -0.7736
vn -0.6336 0.0001 -0.7736
vn -0.1351 -0.2594 -0.9563
vn -0.9418 0.1605 -0.2955
vn -0.9418 0.1605 0.2955
vn -0.6336 0.0001 0.7736
vn -0.1351 -0.2594 0.9563
vn 0.3635 -0.5190 0.7736
vn 0.6717 -0.6794 0.2955
vn 0.6717 -0.6794 -0.2955
vn 0.3635 -0.5190 -0.7736
vn -0.6863 -0.5226 -0.5058
vn -0.3604 -0.6923 -0.6252
vn -0.8878 -0.4177 -0.1932
vn -0.8878 -0.4177 0.1932
vn -0.6863 -0.5226 0.5058
vn -0.3604 -0.6923 0.6252
vn -0.0344 -0.8620 0.5058
vn 0.1671 -0.9668 0.1932
vn 0.1671 -0.9668 -0.1932
vn -0.0344 -0.8620 -0.5058
vn -0.4617 -0.8870 0.0000
# 42 vertex normals

g apple_01
usemtl Material__12807
s 1
f 169//169 170//170 171//171 
f 169//169 171//171 172//172 
f 169//169 172//172 173//173 
f 169//169 173//173 174//174 
f 169//169 174//174 175//175 
f 169//169 175//175 176//176 
f 169//169 176//176 177//177 
f 169//169 177//177 178//178 
f 169//169 178//178 179//179 
f 169//169 179//179 170//170 
f 180//180 171//171 170//170 181//181 
f 182//182 172//172 171//171 180//180 
f 183//183 173//173 172//172 182//182 
f 184//184 174//174 173//173 183//183 
f 185//185 175//175 174//174 184//184 
f 186//186 176//176 175//175 185//185 
f 187//187 177//177 176//176 186//186 
f 188//188 178//178 177//177 187//187 
f 189//189 179//179 178//178 188//188 
f 181//181 170//170 179//179 189//189 
f 190//190 180//180 181//181 191//191 
f 192//192 182//182 180//180 190//190 
f 193//193 183//183 182//182 192//192 
f 194//194 184//184 183//183 193//193 
f 195//195 185//185 184//184 194//194 
f 196//196 186//186 185//185 195//195 
f 197//197 187//187 186//186 196//196 
f 198//198 188//188 187//187 197//197 
f 199//199 189//189 188//188 198//198 
f 191//191 181//181 189//189 199//199 
f 200//200 190//190 191//191 201//201 
f 202//202 192//192 190//190 200//200 
f 203//203 193//193 192//192 202//202 
f 204//204 194//194 193//193 203//203 
f 205//205 195//195 194//194 204//204 
f 206//206 196//196 195//195 205//205 
f 207//207 197//197 196//196 206//206 
f 208//208 198//198 197//197 207//207 
f 209//209 199//199 198//198 208//208 
f 201//201 191//191 199//199 209//209 
f 210//210 200//200 201//201 
f 210//210 202//202 200//200 
f 210//210 203//203 202//202 
f 210//210 204//204 203//203 
f 210//210 205//205 204//204 
f 210//210 206//206 205//205 
f 210//210 207//207 206//206 
f 210//210 208//208 207//207 
f 210//210 209//209 208//208 
f 210//210 201//201 209//209 
# 30 polygons - 20 triangles

#
# object apple_03
#

v  1.4937 0.4925 0.0274
v  1.4902 0.4859 0.0044
v  1.4782 0.4921 0.0088
v  1.4708 0.4960 0.0203
v  1.4708 0.4960 0.0345
v  1.4782 0.4921 0.0460
v  1.4902 0.4859 0.0504
v  1.5022 0.4796 0.0460
v  1.5096 0.4757 0.0345
v  1.5096 0.4757 0.0203
v  1.5022 0.4796 0.0088
v  1.4618 0.4786 -0.0027
v  1.4812 0.4685 -0.0098
v  1.4498 0.4848 0.0159
v  1.4498 0.4848 0.0389
v  1.4618 0.4786 0.0575
v  1.4812 0.4685 0.0647
v  1.5006 0.4584 0.0575
v  1.5126 0.4521 0.0389
v  1.5126 0.4521 0.0159
v  1.5006 0.4584 -0.0027
v  1.4506 0.4571 -0.0027
v  1.4700 0.4470 -0.0098
v  1.4386 0.4634 0.0159
v  1.4386 0.4634 0.0389
v  1.4506 0.4571 0.0575
v  1.4700 0.4470 0.0647
v  1.4894 0.4369 0.0575
v  1.5014 0.4307 0.0389
v  1.5014 0.4307 0.0159
v  1.4894 0.4369 -0.0027
v  1.4490 0.4359 0.0088
v  1.4610 0.4297 0.0044
v  1.4415 0.4398 0.0203
v  1.4415 0.4398 0.0345
v  1.4490 0.4359 0.0460
v  1.4610 0.4297 0.0504
v  1.4730 0.4234 0.0460
v  1.4804 0.4195 0.0345
v  1.4804 0.4195 0.0203
v  1.4730 0.4234 0.0088
v  1.4575 0.4230 0.0274
# 42 vertices

vn 0.4617 0.8870 0.0000
vn 0.3604 0.6923 -0.6252
vn 0.0344 0.8620 -0.5058
vn -0.1671 0.9668 -0.1932
vn -0.1671 0.9668 0.1932
vn 0.0344 0.8620 0.5058
vn 0.3604 0.6923 0.6252
vn 0.6863 0.5226 0.5058
vn 0.8878 0.4177 0.1932
vn 0.8878 0.4177 -0.1932
vn 0.6863 0.5226 -0.5058
vn -0.3635 0.5190 -0.7736
vn 0.1351 0.2594 -0.9563
vn -0.6717 0.6794 -0.2955
vn -0.6717 0.6794 0.2955
vn -0.3635 0.5190 0.7736
vn 0.1351 0.2594 0.9563
vn 0.6336 -0.0001 0.7736
vn 0.9418 -0.1605 0.2955
vn 0.9418 -0.1605 -0.2955
vn 0.6336 -0.0001 -0.7736
vn -0.6336 0.0001 -0.7736
vn -0.1351 -0.2594 -0.9563
vn -0.9418 0.1605 -0.2955
vn -0.9418 0.1605 0.2955
vn -0.6336 0.0001 0.7736
vn -0.1351 -0.2594 0.9563
vn 0.3635 -0.5190 0.7736
vn 0.6717 -0.6794 0.2955
vn 0.6717 -0.6794 -0.2955
vn 0.3635 -0.5190 -0.7736
vn -0.6863 -0.5226 -0.5058
vn -0.3604 -0.6923 -0.6252
vn -0.8878 -0.4177 -0.1932
vn -0.8878 -0.4177 0.1932
vn -0.6863 -0.5226 0.5058
vn -0.3604 -0.6923 0.6252
vn -0.0344 -0.8620 0.5058
vn 0.1671 -0.9668 0.1932
vn 0.1671 -0.9668 -0.1932
vn -0.0344 -0.8620 -0.5058
vn -0.4617 -0.8870 0.0000
# 42 vertex normals

g apple_03
usemtl Material__12807
s 1
f 211//211 212//212 213//213 
f 211//211 213//213 214//214 
f 211//211 214//214 215//215 
f 211//211 215//215 216//216 
f 211//211 216//216 217//217 
f 211//211 217//217 218//218 
f 211//211 218//218 219//219 
f 211//211 219//219 220//220 
f 211//211 220//220 221//221 
f 211//211 221//221 212//212 
f 222//222 213//213 212//212 223//223 
f 224//224 214//214 213//213 222//222 
f 225//225 215//215 214//214 224//224 
f 226//226 216//216 215//215 225//225 
f 227//227 217//217 216//216 226//226 
f 228//228 218//218 217//217 227//227 
f 229//229 219//219 218//218 228//228 
f 230//230 220//220 219//219 229//229 
f 231//231 221//221 220//220 230//230 
f 223//223 212//212 221//221 231//231 
f 232//232 222//222 223//223 233//233 
f 234//234 224//224 222//222 232//232 
f 235//235 225//225 224//224 234//234 
f 236//236 226//226 225//225 235//235 
f 237//237 227//227 226//226 236//236 
f 238//238 228//228 227//227 237//237 
f 239//239 229//229 228//228 238//238 
f 240//240 230//230 229//229 239//239 
f 241//241 231//231 230//230 240//240 
f 233//233 223//223 231//231 241//241 
f 242//242 232//232 233//233 243//243 
f 244//244 234//234 232//232 242//242 
f 245//245 235//235 234//234 244//244 
f 246//246 236//236 235//235 245//245 
f 247//247 237//237 236//236 246//246 
f 248//248 238//238 237//237 247//247 
f 249//249 239//239 238//238 248//248 
f 250//250 240//240 239//239 249//249 
f 251//251 241//241 240//240 250//250 
f 243//243 233//233 241//241 251//251 
f 252//252 242//242 243//243 
f 252//252 244//244 242//242 
f 252//252 245//245 244//244 
f 252//252 246//246 245//245 
f 252//252 247//247 246//246 
f 252//252 248//248 247//247 
f 252//252 249//249 248//248 
f 252//252 250//250 249//249 
f 252//252 251//251 250//250 
f 252//252 243//243 251//251 
# 30 polygons - 20 triangles

