# 3ds Max Wavefront OBJ Exporter v0.97b - (c)2007 guruware
# File Created: 06.01.2017 13:09:21

mtllib FirePlace.mtl

#
# object FirePlace_01
#

v  -0.7228 0.0701 -3.4762
v  0.7440 0.0701 -3.4754
v  0.7446 0.0701 -4.0001
v  -0.7222 0.0701 -4.0008
v  -0.7221 -0.0002 -3.4762
v  0.7435 0.0000 -3.4754
v  0.7446 0.0000 -3.9997
v  -0.7222 -0.0002 -4.0003
v  -0.7221 1.2363 -3.4762
v  -0.7222 1.2363 -4.0003
v  0.7446 1.2365 -3.9997
v  0.7435 1.2365 -3.4754
v  -0.7228 1.3066 -3.4762
v  0.7440 1.3066 -3.4754
v  0.7446 1.3066 -4.0001
v  -0.7222 1.3066 -4.0008
v  0.6246 0.3649 -3.5451
v  0.7197 0.3649 -3.4811
v  -0.3430 0.3649 -3.4809
v  -0.3430 0.3649 -3.5450
v  0.7197 0.9409 -3.4811
v  0.6246 0.9409 -3.5451
v  -0.3430 0.9409 -3.5450
v  -0.3430 0.9409 -3.4809
v  -0.2489 0.5282 -3.4810
v  -0.2489 0.8609 -3.4810
v  0.5284 0.5282 -3.9778
v  0.5284 0.8609 -3.9778
v  -0.2489 0.8609 -3.9777
v  -0.2489 0.5282 -3.9777
v  0.7198 0.3649 -4.0010
v  0.6247 0.3649 -4.0010
v  0.6247 0.9409 -4.0010
v  0.7198 0.9409 -4.0010
v  -0.1513 0.5282 -3.6512
v  -0.1513 0.5282 -3.8355
v  0.5281 0.5282 -3.4810
v  0.5281 0.8609 -3.4810
v  0.4306 0.4995 -3.6510
v  0.4306 0.4995 -3.8355
v  -0.1513 0.4995 -3.8355
v  -0.1513 0.4995 -3.6512
v  0.4306 0.5282 -3.6510
v  0.4306 0.5282 -3.8355
v  0.7058 0.9445 -3.4965
v  0.7058 1.2312 -3.4965
v  -0.6773 1.2313 -3.4971
v  -0.3484 0.9445 -3.4969
v  0.7062 0.9445 -3.9985
v  0.7062 1.2312 -3.9985
v  -0.6770 1.2313 -3.9991
v  -0.6770 0.0757 -3.9991
v  -0.6773 0.0757 -3.4971
v  0.7058 0.3622 -3.4965
v  0.7058 0.0756 -3.4965
v  0.7062 0.0756 -3.9985
v  0.7062 0.3622 -3.9985
v  -0.3484 0.3622 -3.4969
# 58 vertices

vn 0.0000 1.0000 0.0000
vn -0.0005 0.0000 1.0000
vn 1.0000 -0.0036 0.0016
vn -1.0000 -0.0051 -0.0004
vn 0.0001 -1.0000 0.0000
vn 0.0000 1.0000 -0.0000
vn 0.0000 -1.0000 -0.0000
vn 0.0001 0.0000 1.0000
vn -0.0002 0.0000 -1.0000
vn -1.0000 0.0000 -0.0001
vn 1.0000 0.0000 0.0001
vn -1.0000 0.0000 -0.0007
vn 0.0004 0.0000 -1.0000
vn 0.0001 -0.0000 1.0000
vn -0.0004 0.0000 1.0000
vn 1.0000 0.0000 0.0007
vn -0.0004 -0.0000 1.0000
# 17 vertex normals

vt -0.0318 0.2343 0.5262
vt 1.0323 0.2349 0.5262
vt 1.0318 0.7657 0.5262
vt -0.0323 0.7651 0.5262
vt -0.0318 0.4743 0.2338
vt 1.0320 0.4745 0.2338
vt 1.0318 0.5254 0.2337
vt -0.0324 0.5252 0.2338
vt 0.2348 0.4744 1.0328
vt 0.7653 0.4745 1.0328
vt 0.7652 0.5254 1.0329
vt 0.2343 0.5252 1.0329
vt 0.2348 0.4743 -0.0329
vt 0.7656 0.4748 -0.0328
vt 0.7652 0.5254 -0.0329
vt 0.2343 0.5252 -0.0329
vt 1.0320 0.2345 0.4738
vt 1.0322 0.7653 0.4738
vt -0.0324 0.7651 0.4738
vt -0.0318 0.2343 0.4738
vt 0.0913 0.1238 0.0005
vt 0.0039 0.0005 0.0068
vt 0.9961 0.0005 0.0068
vt 0.9978 0.1238 0.0037
vt 0.9961 0.0005 0.9932
vt 0.9087 0.1238 0.9995
vt 0.0022 0.1238 0.9963
vt 0.0039 0.0005 0.9932
vt 0.0896 0.2828 0.0005
vt 0.0902 0.8589 0.0022
vt 0.0039 0.9932 0.0005
vt 0.0039 0.0068 0.0005
vt 0.8179 0.2859 0.9528
vt 0.8179 0.8568 0.9528
vt 0.0913 0.8568 0.9528
vt 0.0913 0.2859 0.9528
vt 0.0005 0.0068 0.9995
vt 0.0913 0.0068 0.9995
vt 0.0913 0.9932 0.9995
vt 0.0005 0.9932 0.9995
vt 0.9995 0.9932 0.0005
vt 0.8762 0.9932 0.0005
vt 0.8762 0.0068 0.0005
vt 0.9995 0.0068 0.0005
vt 0.9995 0.0068 0.9995
vt 0.9995 0.9932 0.9995
vt 0.0913 0.0030 0.2828
vt 0.1821 0.3271 0.2859
vt 0.1821 0.6803 0.2859
vt 0.0913 0.9528 0.2859
vt 0.9945 0.2859 0.8179
vt 0.9945 0.8568 0.8179
vt 0.0472 0.8568 0.8179
vt 0.0472 0.2859 0.8179
vt 0.1821 0.0055 0.8568
vt 0.9098 0.0022 0.8589
vt 0.9087 0.9528 0.8568
vt 0.1821 0.9528 0.8568
vt 0.0055 0.8568 0.0913
vt 0.0055 0.2859 0.0913
vt 0.9528 0.2859 0.0913
vt 0.9528 0.8568 0.0913
vt 0.7270 0.3271 0.2360
vt 0.7270 0.6803 0.2360
vt 0.1821 0.6803 0.2360
vt 0.1821 0.3271 0.2360
vt 0.6803 0.2859 0.1821
vt 0.3271 0.2859 0.1821
vt 0.3271 0.2360 0.1821
vt 0.6803 0.2360 0.1821
vt 0.8179 0.2859 0.3271
vt 0.2730 0.2859 0.3271
vt 0.2730 0.2360 0.3271
vt 0.8179 0.2360 0.3271
vt 0.6729 0.2859 0.7270
vt 0.3197 0.2859 0.7270
vt 0.3197 0.2360 0.7270
vt 0.6729 0.2360 0.7270
vt 0.7270 0.2859 0.6803
vt 0.1821 0.2859 0.6803
vt 0.1821 0.2360 0.6803
vt 0.7270 0.2360 0.6803
vt 0.8190 0.0022 0.2838
vt 0.8179 0.9528 0.2859
vt 0.7270 0.6803 0.2859
vt 0.7270 0.3271 0.2859
vt 0.9961 0.0068 0.0005
vt 0.8190 0.2838 0.0022
vt 0.8196 0.8599 0.0005
vt 0.9961 0.9932 0.0005
vt 0.9995 0.9995 0.9932
vt 0.9087 0.9970 0.9963
vt 0.0913 0.9970 0.0037
vt 0.0005 0.9995 0.0068
vt 1.0420 0.3536 0.0000
vt 0.8120 0.3408 0.0000
vt 0.8677 -0.6612 0.0000
vt 1.0845 -0.4102 0.0000
vt 0.2930 0.0066 0.0000
vt 0.5230 0.0193 0.0000
vt 0.4948 0.5273 0.0000
vt 0.2648 0.5146 0.0000
vt 0.4819 0.0319 0.0000
vt 0.4536 0.5399 0.0000
vt -0.4585 0.4893 0.0000
vt -0.4302 -0.0187 0.0000
vt 0.2930 0.3719 0.0000
vt 0.5230 0.3846 0.0000
vt 0.4948 0.8926 0.0000
vt 0.2648 0.8799 0.0000
vt 1.5384 0.6727 0.0000
vt 0.6273 0.5534 0.0000
vt 0.8842 0.3446 0.0000
vt 1.3433 0.4046 0.0000
vt 0.7719 1.0892 0.0000
vt 0.5419 1.0765 0.0000
vt 0.5844 0.3127 0.0000
vt 0.8276 0.0872 0.0000
# 118 texture coords

g FirePlace_01
usemtl Material__62
s off
f 1/1/1 2/2/1 3/3/1 4/4/1 
f 5/5/2 6/6/2 2/7/2 1/8/2 
f 6/9/3 7/10/3 3/11/3 2/12/3 
f 8/13/4 5/14/4 1/15/4 4/16/4 
f 9/17/5 10/18/5 11/19/5 12/20/5 
f 13/1/6 14/2/6 15/3/6 16/4/6 
f 9/5/2 12/6/2 14/7/2 13/8/2 
f 12/9/3 11/10/3 15/11/3 14/12/3 
f 10/13/4 9/14/4 13/15/4 16/16/4 
f 17/21/7 18/22/7 19/23/7 20/24/7 
f 21/25/6 22/26/6 23/27/6 24/28/6 
f 25/29/8 26/30/8 24/31/8 19/32/8 
f 27/33/8 28/34/8 29/35/8 30/36/8 
f 31/37/9 32/38/9 33/39/9 34/40/9 
f 24/41/10 23/42/10 20/43/10 19/44/10 
f 31/45/11 34/46/11 21/40/11 18/37/11 
f 25/47/6 35/48/6 36/49/6 30/50/6 
f 37/51/12 38/52/12 28/53/12 27/54/12 
f 38/55/7 26/56/7 29/57/7 28/58/7 
f 26/59/11 25/60/11 30/61/11 29/62/11 
f 39/63/6 40/64/6 41/65/6 42/66/6 
f 36/67/11 35/68/11 42/69/11 41/70/11 
f 35/71/13 43/72/13 39/73/13 42/74/13 
f 43/75/10 44/76/10 40/77/10 39/78/10 
f 44/79/8 36/80/8 41/81/8 40/82/8 
f 37/83/6 27/84/6 44/85/6 43/86/6 
f 44/85/6 27/84/6 30/50/6 36/49/6 
f 37/83/6 43/86/6 35/48/6 25/47/6 
f 18/87/8 37/88/8 25/29/8 19/32/8 
f 26/30/14 38/89/14 21/90/14 24/31/14 
f 34/91/6 33/92/6 22/26/6 21/25/6 
f 21/90/8 38/89/8 37/88/8 18/87/8 
f 17/21/7 32/93/7 31/94/7 18/22/7 
usemtl Material__60
f 45/95/15 46/96/15 47/97/15 48/98/15 
f 46/99/16 45/100/16 49/101/16 50/102/16 
f 47/103/12 51/104/12 52/105/12 53/106/12 
f 54/107/16 55/108/16 56/109/16 57/110/16 
f 47/111/15 53/112/15 58/113/15 48/114/15 
f 55/115/17 54/116/17 58/117/17 53/118/17 
# 39 polygons

#
# object FirePlace_02
#

v  0.6954 2.9333 -3.7642
v  -0.6680 2.9333 -3.7640
v  -0.6680 1.3096 -3.7640
v  0.6954 1.3096 -3.7642
v  0.6955 2.9333 -4.0020
v  0.6955 1.3096 -4.0020
v  -0.6680 1.3096 -4.0019
v  -0.6680 2.9333 -4.0019
v  -0.3462 1.7021 -3.7357
v  -0.3462 1.7021 -3.7491
v  0.3458 1.7021 -3.7488
v  0.3458 1.7021 -3.7353
v  -0.3462 2.6388 -3.7357
v  0.3458 2.6388 -3.7353
v  0.3458 2.6388 -3.7488
v  -0.3462 2.6388 -3.7491
v  -0.3443 2.6364 -3.7264
v  0.3413 2.6364 -3.7260
v  0.3524 2.6475 -3.7260
v  -0.3554 2.6475 -3.7264
v  -0.3443 2.6364 -3.7599
v  0.3413 2.6364 -3.7595
v  0.3524 2.6475 -3.7595
v  -0.3554 2.6475 -3.7599
v  -0.3443 1.7063 -3.7264
v  -0.3554 1.6951 -3.7264
v  -0.3443 1.7063 -3.7599
v  -0.3554 1.6951 -3.7599
v  0.3413 1.7063 -3.7260
v  0.3524 1.6951 -3.7260
v  0.3413 1.7063 -3.7595
v  0.3524 1.6951 -3.7595
# 32 vertices

vn 0.0001 0.0000 1.0000
vn 1.0000 0.0000 0.0001
vn -1.0000 0.0000 -0.0001
vn 0.0000 -1.0000 -0.0000
vn 0.0000 1.0000 -0.0000
vn -0.0005 0.0000 1.0000
vn 1.0000 0.0000 0.0007
vn 0.0005 0.0000 -1.0000
vn -1.0000 0.0000 -0.0007
vn -0.0005 -0.0000 1.0000
vn 1.0000 -0.0000 0.0007
# 11 vertex normals

vt 1.9835 3.6955 0.1930
vt -0.9805 3.6970 0.1915
vt -0.9805 0.1513 0.1885
vt 1.9835 0.1513 0.1915
vt 0.8075 3.6960 1.9825
vt 0.1945 3.6970 1.9835
vt 0.1945 0.1513 1.9865
vt 0.7649 -1.9872 1.9865
vt 0.2351 -1.9872 -0.9865
vt 0.8085 0.1513 -0.9835
vt 0.8075 3.6960 -0.9825
vt 0.1945 3.6970 -0.9835
vt 1.0000 0.0000 0.0000
vt 1.0000 1.0000 0.0000
vt 0.0000 1.0000 0.0000
vt 0.0000 0.0000 0.0000
vt -373.2218 506.2049 18.2784
vt 373.2218 506.2049 18.2784
vt 385.3477 518.3309 18.2784
vt -385.3477 518.3309 18.2784
vt -373.2218 506.2049 -18.2784
vt 373.2218 506.2049 -18.2784
vt 385.3477 518.3309 -18.2784
vt -385.3477 518.3309 -18.2784
vt -373.2218 -506.2049 18.2784
vt -385.3477 -518.3309 18.2784
vt -373.2218 -506.2049 -18.2784
vt -385.3477 -518.3309 -18.2784
vt 373.2218 -506.2049 18.2784
vt 385.3477 -518.3309 18.2784
vt 373.2218 -506.2049 -18.2784
vt 385.3477 -518.3309 -18.2784
# 32 texture coords

g FirePlace_02
usemtl Material__63
s off
f 59/119/18 60/120/18 61/121/18 62/122/18 
f 63/123/19 59/124/19 62/125/19 64/126/19 
f 65/127/20 61/128/20 60/129/20 66/130/20 
usemtl Material__61
f 67/131/21 68/132/21 69/133/21 70/134/21 
f 71/134/22 72/131/22 73/132/22 74/133/22 
f 67/134/23 70/131/23 72/132/23 71/133/23 
f 70/134/24 69/131/24 73/132/24 72/133/24 
f 69/134/25 68/131/25 74/132/25 73/133/25 
f 68/134/26 67/131/26 71/132/26 74/133/26 
usemtl Material__62
f 75/135/27 76/136/27 77/137/27 78/138/27 
f 79/139/21 80/140/21 76/136/21 75/135/21 
f 78/138/22 77/137/22 81/141/22 82/142/22 
f 83/143/23 75/135/23 78/138/23 84/144/23 
f 85/145/28 79/139/28 75/135/28 83/143/28 
f 84/144/26 78/138/26 82/142/26 86/146/26 
f 87/147/23 83/143/23 84/144/23 88/148/23 
f 89/149/22 85/145/22 83/143/22 87/147/22 
f 88/148/21 84/144/21 86/146/21 90/150/21 
f 76/136/23 87/147/23 88/148/23 77/137/23 
f 80/140/26 89/149/26 87/147/26 76/136/26 
f 77/137/24 88/148/24 90/150/24 81/141/24 
# 21 polygons

