# 3ds Max Wavefront OBJ Exporter v0.97b - (c)2007 guruware
# File Created: 16.12.2016 12:39:23

mtllib sofa_02.mtl

#
# object sofa_02
#

v  3.1692 0.4498 -0.7482
v  2.2791 0.4498 -0.7482
v  2.2791 0.4498 0.6918
v  3.1692 0.4498 0.6918
v  2.2491 0.0220 -0.7482
v  2.2491 0.0222 0.6918
v  2.2491 0.4199 0.6918
v  2.2491 0.4198 -0.7482
v  3.1692 0.4498 -2.2482
v  2.2791 0.4498 -2.2482
v  2.2791 0.4498 -0.8082
v  3.1692 0.4498 -0.8082
v  3.1692 0.0220 -2.2782
v  2.2791 0.0220 -2.2782
v  2.2791 0.4198 -2.2782
v  3.1692 0.4198 -2.2782
v  2.2491 0.0220 -2.2482
v  2.2491 0.0220 -0.8082
v  2.2491 0.4198 -0.8082
v  2.2491 0.4198 -2.2482
v  2.2566 0.4367 -0.7651
v  2.2566 0.4198 -0.7707
v  2.2791 0.0220 -0.7782
v  2.2566 0.0220 -0.7857
v  2.2623 -0.0002 -0.7857
v  2.2791 -0.0002 -0.7782
v  2.2566 0.4367 -2.2651
v  2.2566 0.4198 -2.2707
v  2.2791 0.4198 -0.7782
v  2.2623 0.4367 -0.7857
v  2.2566 0.4198 -0.7857
v  2.2791 0.4423 -0.7707
v  3.1692 0.4423 -0.7707
v  2.2566 0.4423 0.6918
v  2.2566 0.4423 -0.7482
v  2.2566 0.0220 -0.7707
v  2.2791 0.4423 -2.2707
v  3.1692 0.4423 -2.2707
v  2.2566 0.4423 -0.8082
v  2.2566 0.4423 -2.2482
v  3.1692 0.4423 -0.7857
v  2.2791 0.4423 -0.7857
v  2.2566 0.0220 -2.2707
v  2.2623 -0.0002 -0.7651
v  2.2566 -0.0002 -0.7482
v  2.2566 -0.0002 -0.8082
v  2.2623 -0.0002 -2.2651
v  2.2566 -0.0002 -2.2482
v  2.2791 -0.0002 -2.2707
v  2.2566 -0.0002 0.6918
v  3.1692 0.4198 -0.7782
v  3.1692 -0.0002 -2.2707
v  3.0849 0.4498 0.6078
v  3.0975 0.5125 0.6205
v  3.0975 0.5125 -0.7707
v  3.0849 0.4498 -0.7707
v  3.2091 0.4498 -0.7707
v  3.2091 0.4498 0.6918
v  3.3441 -0.0002 0.6918
v  3.3441 -0.0002 -0.7707
v  3.3441 0.6421 -0.7707
v  3.3441 0.6421 0.6918
v  3.2833 0.6407 -0.7707
v  3.2833 0.6407 0.6918
v  3.2091 -0.0002 -0.7707
v  3.2091 -0.0002 0.6918
v  3.2094 0.6349 -0.7707
v  3.2094 0.6349 0.6918
v  3.1186 0.5724 0.6415
v  3.1186 0.5724 -0.7707
v  3.1536 0.6145 0.6766
v  3.1536 0.6145 -0.7707
v  3.2091 0.4498 -2.2482
v  3.0849 0.4498 -2.1642
v  3.1976 0.4498 -2.2778
v  3.3441 0.6421 -2.2482
v  3.3441 -0.0002 -2.2482
v  3.2931 -0.0002 -2.3732
v  3.2931 0.6421 -2.3732
v  3.2833 0.6407 -2.2482
v  3.2501 0.6407 -2.3302
v  3.2091 -0.0002 -2.2482
v  3.1976 -0.0002 -2.2778
v  3.2094 0.6349 -2.2482
v  3.1978 0.6349 -2.2779
v  3.1536 0.6145 -2.2330
v  3.1692 0.4498 -2.2885
v  3.1692 -0.0002 -2.4235
v  3.1692 0.6421 -2.4235
v  3.1692 0.6407 -2.3627
v  3.1692 -0.0002 -2.2885
v  3.1692 0.6349 -2.2888
v  3.0975 0.5125 -2.1769
v  2.4405 0.5125 -2.1769
v  2.4405 0.4498 -2.1642
v  2.4405 0.4498 -2.2885
v  2.4405 -0.0002 -2.4235
v  2.4405 0.6421 -2.4235
v  2.4405 0.6407 -2.3627
v  2.4405 -0.0002 -2.2885
v  2.4405 0.6349 -2.2888
v  3.1186 0.5724 -2.1980
v  2.4405 0.5724 -2.1980
v  2.4405 0.6145 -2.2330
v  3.1976 0.4498 0.7213
v  3.2931 0.6421 0.8167
v  3.2931 -0.0002 0.8167
v  3.2501 0.6407 0.7737
v  3.1976 -0.0002 0.7213
v  3.1978 0.6349 0.7215
v  3.1692 0.4498 0.7321
v  3.1692 0.6421 0.8670
v  3.1692 -0.0002 0.8670
v  3.1692 0.6407 0.8062
v  3.1692 -0.0002 0.7321
v  3.1692 0.6349 0.7323
v  2.4405 0.4498 0.6078
v  2.4405 0.5125 0.6205
v  2.4405 0.4498 0.7321
v  2.4405 0.6421 0.8670
v  2.4405 -0.0002 0.8670
v  2.4405 0.6407 0.8062
v  2.4405 -0.0002 0.7321
v  2.4405 0.6349 0.7323
v  2.4405 0.5724 0.6415
v  2.4405 0.6145 0.6766
v  3.0975 0.5125 -0.7857
v  3.0849 0.4498 -0.7857
v  3.2091 0.4498 -0.7857
v  3.3441 0.6421 -0.7857
v  3.3441 -0.0002 -0.7857
v  3.2833 0.6407 -0.7857
v  3.2091 -0.0002 -0.7857
v  3.2094 0.6349 -0.7857
v  3.1186 0.5724 -0.7857
v  3.1536 0.6145 -0.7857
v  3.0965 0.4593 -0.7782
v  3.1120 0.5086 -0.7782
v  3.2198 0.4604 -0.7782
v  3.3336 0.6313 -0.7782
v  3.3335 0.0104 -0.7782
v  3.2840 0.6257 -0.7782
v  3.2198 0.0104 -0.7782
v  3.2126 0.6203 -0.7782
v  3.1316 0.5650 -0.7782
v  3.1623 0.6023 -0.7782
v  3.0849 0.7500 1.1094
v  2.5061 0.7500 1.1094
v  2.5061 0.7500 1.1534
v  3.0849 0.7500 1.1534
v  3.0849 0.0444 -2.6721
v  2.5061 0.0444 -2.6721
v  2.5061 0.0444 1.1094
v  3.0849 0.0444 1.1094
v  2.5061 -0.0002 -2.7161
v  2.5061 -0.0002 1.1534
v  3.0849 -0.0002 -2.7161
v  3.0849 -0.0002 1.1534
v  3.0849 0.7500 -2.6721
v  3.0849 0.7500 -2.7161
v  2.5061 0.7500 -2.7161
v  2.5061 0.7500 -2.6721
v  3.0849 0.6421 0.8105
v  2.5061 0.6421 0.8105
v  2.5061 0.6551 0.8105
v  3.0849 0.6551 0.8105
v  3.0849 0.6421 -2.3732
v  2.5061 0.6421 -2.3732
v  2.5061 0.6551 -2.3732
v  3.0849 0.6551 -2.3732
v  3.0849 0.6421 1.1094
v  2.5061 0.6421 1.1094
v  2.5061 0.6551 1.1094
v  3.0849 0.6551 1.1094
v  3.0849 0.6421 -2.6721
v  3.0849 0.6551 -2.6721
v  2.5061 0.6551 -2.6721
v  2.5061 0.6421 -2.6721
v  3.1692 0.4200 0.7218
v  2.2791 0.4200 0.7218
v  2.2791 0.0223 0.7218
v  3.1692 0.0223 0.7218
v  2.2566 -0.0002 0.7086
v  2.2566 0.0223 0.7143
v  2.2566 0.4200 0.7143
v  2.2623 0.4423 0.7086
v  2.2791 0.4423 0.7143
v  2.2791 -0.0002 0.7143
v  3.1692 0.4423 0.7143
v  3.1692 -0.0002 0.7143
# 190 vertices

vn -0.0000 0.9871 -0.1602
vn -0.1559 0.9754 -0.1559
vn -0.1559 0.9754 0.1559
vn -0.0000 0.9871 0.1602
vn -0.9751 -0.1575 -0.1559
vn -0.9837 -0.1262 0.1278
vn -0.9754 0.1565 0.1555
vn -0.9820 0.1334 -0.1334
vn 0.0000 0.9871 -0.1602
vn 0.0000 0.9871 0.1602
vn 0.0000 -0.1619 -0.9868
vn -0.1559 -0.1575 -0.9751
vn -0.1559 0.1559 -0.9754
vn 0.0000 0.1602 -0.9871
vn -0.9751 -0.1575 0.1559
vn -0.9754 0.1559 0.1559
vn -0.6604 0.5310 -0.5310
vn -0.6823 0.1179 -0.7215
vn -0.9889 -0.1438 0.0376
vn -0.7250 -0.1023 0.6811
vn -0.7061 -0.1478 0.6925
vn -0.9926 0.0000 0.1211
vn -0.7068 0.7068 0.0309
vn -0.5310 0.5310 0.6604
vn -0.7215 0.1179 0.6823
vn -0.1616 0.6978 -0.6978
vn -0.0000 0.7071 -0.7071
vn -0.7030 0.6970 0.1414
vn -0.6823 0.7215 -0.1179
vn -0.6976 -0.1632 -0.6976
vn 0.0000 0.7071 -0.7071
vn -0.6978 0.6978 0.1616
vn 0.0000 0.7071 0.7071
vn -0.1179 0.7215 0.6823
vn -0.7418 -0.2528 -0.6211
vn -0.9358 -0.3155 -0.1571
vn -0.9443 -0.2982 0.1393
vn -0.6658 -0.3367 -0.6658
vn -0.1571 -0.3155 -0.9358
vn -0.9481 -0.3178 0.0000
vn 0.0000 1.0000 -0.0000
vn 0.0000 -0.3194 -0.9476
vn -0.3682 -0.8537 -0.3682
vn -0.6551 0.3763 -0.6551
vn -0.8267 0.2391 -0.5093
vn -0.6963 -0.5706 -0.4354
vn -0.5239 -0.5239 -0.6716
vn -0.7315 -0.6678 -0.1374
vn 0.9813 -0.0000 0.1926
vn 0.9446 -0.0000 -0.3282
vn 0.6221 0.6434 -0.4461
vn 0.7250 0.6738 0.1426
vn -0.0428 0.8522 -0.5215
vn -0.0470 0.9989 -0.0089
vn -0.9446 0.0000 -0.3282
vn -0.9828 0.0000 -0.1846
vn -0.1827 0.8430 -0.5060
vn -0.1899 0.9810 -0.0383
vn -0.5273 0.6662 -0.5273
vn -0.7528 0.4269 -0.5010
vn -0.2647 0.9273 -0.2646
vn -0.5021 0.7123 -0.4904
vn -0.7315 -0.6678 0.1374
vn -0.3682 -0.8537 0.3682
vn -0.5489 -0.6260 0.5539
vn 0.7250 0.6738 -0.1426
vn 0.9813 -0.0000 -0.1926
vn 0.7064 -0.0000 -0.7078
vn 0.5450 0.6363 -0.5460
vn -0.0470 0.9989 0.0089
vn -0.0306 0.9991 0.0306
vn -0.9828 0.0000 0.1846
vn -0.7039 0.0000 0.7103
vn -0.1899 0.9810 0.0383
vn -0.1153 0.9865 0.1160
vn -0.2647 0.9273 0.2646
vn -0.1339 -0.6687 0.7314
vn 0.1917 -0.0000 -0.9815
vn 0.1419 0.6740 -0.7249
vn -0.0087 0.9989 0.0471
vn -0.1801 0.0000 0.9836
vn -0.0373 0.9811 0.1901
vn -0.6551 0.3763 0.6551
vn -0.6918 0.1917 0.6962
vn -0.5676 -0.5214 0.6372
vn -0.9045 -0.3015 0.3015
vn -0.7071 -0.0000 -0.7071
vn -0.5762 0.5845 -0.5713
vn -0.7009 0.7123 0.0359
vn -0.7071 0.0000 0.7071
vn -0.6778 0.7184 0.1563
vn -0.5273 0.6662 0.5273
vn -0.6693 0.3667 0.6461
vn -0.6530 0.6193 0.4360
vn -0.5489 -0.6260 -0.5539
vn 0.5450 0.6363 0.5460
vn 0.7064 -0.0000 0.7078
vn -0.0306 0.9991 -0.0306
vn -0.7039 0.0000 -0.7103
vn -0.1153 0.9865 -0.1160
vn -0.1339 -0.6687 -0.7314
vn 0.1419 0.6740 0.7249
vn 0.1917 -0.0000 0.9815
vn -0.0087 0.9989 -0.0471
vn -0.1801 0.0000 -0.9836
vn -0.0373 0.9811 -0.1901
vn -0.5676 -0.5214 -0.6372
vn -0.6918 0.1917 -0.6962
vn -0.9045 -0.3015 -0.3015
vn -0.5762 0.5845 0.5713
vn -0.7071 -0.0000 0.7071
vn -0.7009 0.7124 -0.0359
vn -0.7071 0.0000 -0.7071
vn -0.6778 0.7184 -0.1563
vn -0.6693 0.3667 -0.6461
vn -0.6530 0.6193 -0.4360
vn -0.8263 0.2272 0.5154
vn -0.6976 -0.5638 0.4422
vn -0.5223 -0.5266 0.6707
vn 0.6276 0.6421 0.4402
vn 0.9446 -0.0000 0.3282
vn -0.0528 0.8548 0.5162
vn -0.9446 0.0000 0.3282
vn -0.1831 0.8426 0.5065
vn -0.7532 0.4269 0.5005
vn -0.5012 0.7129 0.4905
vn -0.8122 -0.5821 -0.0391
vn -0.9558 0.2939 -0.0071
vn -0.7058 -0.7085 0.0006
vn 0.6604 0.7504 0.0270
vn 1.0000 -0.0001 -0.0001
vn -0.0758 0.9971 0.0060
vn -1.0000 0.0000 -0.0000
vn -0.2099 0.9777 -0.0007
vn -0.8711 0.4910 0.0008
vn -0.5754 0.8179 -0.0001
vn -1.0000 0.0000 0.0000
vn 1.0000 -0.0000 -0.0000
vn -0.0000 0.0000 -1.0000
vn -1.0000 -0.0000 -0.0000
vn -0.0000 -0.0000 1.0000
vn 1.0000 0.0000 -0.0000
vn 0.0000 0.0000 1.0000
vn -1.0000 -0.0000 0.0000
vn 0.0000 0.0000 -1.0000
vn -0.0000 -0.0000 -1.0000
vn 0.0000 -1.0000 -0.0000
vn 0.0000 1.0000 0.0000
vn 0.0000 -1.0000 0.0000
vn -0.0000 1.0000 -0.0000
vn -0.0000 0.1619 0.9868
vn -0.1559 0.1575 0.9751
vn -0.1478 -0.1478 0.9779
vn -0.0000 -0.1602 0.9871
vn -0.7602 -0.2732 0.5895
vn -0.6885 -0.0889 0.7198
vn -0.6978 0.1633 0.6975
vn -0.4728 0.7436 0.4728
vn -0.1416 0.6974 0.7025
vn -0.1189 -0.3140 0.9419
vn 0.0000 0.7083 0.7059
vn -0.0000 -0.3162 0.9487
# 162 vertex normals

vt 0.0100 0.0100 0.0000
vt 0.9900 0.0100 0.0000
vt 0.9900 0.9900 0.0000
vt 0.0100 0.9900 0.0000
vt 0.0000 1.0000 0.0000
vt -0.0032 0.0158 0.0000
vt 0.0000 0.0000 0.0000
vt 0.9765 0.9618 0.0000
vt 0.9631 0.9335 0.0000
vt 0.0369 0.9335 0.0000
vt 0.0235 0.9618 0.0000
vt 0.9850 1.0077 0.0000
vt 0.9801 1.0255 0.0000
vt 0.0199 1.0255 0.0000
vt 0.0150 1.0077 0.0000
vt -0.0797 0.9900 0.0000
vt -0.1693 0.9900 0.0000
vt -0.1693 0.0100 0.0000
vt -0.0797 0.0100 0.0000
vt -0.0417 0.0117 0.0000
vt -0.0184 0.0151 0.0000
vt -0.0834 0.0505 0.0000
vt -0.0834 -0.0038 0.0000
vt -0.0073 1.0011 0.0000
vt -0.0155 0.9903 0.0000
vt -0.0391 1.0142 0.0000
vt -0.0230 0.9468 0.0000
vt -0.0155 0.0097 0.0000
vt -0.0230 0.0532 0.0000
vt 0.0150 -0.0077 0.0000
vt 0.9850 -0.0077 0.0000
vt 0.0235 0.0382 0.0000
vt 0.9765 0.0382 0.0000
vt -0.0760 -0.0085 0.0516
vt -0.0675 0.0334 0.0432
vt -0.9950 0.0334 0.0432
vt -0.9950 -0.0085 0.0516
vt -0.9950 -0.0085 -0.0313
vt -0.0200 -0.0085 -0.0313
vt -0.0200 -0.3085 -0.1212
vt -0.9950 -0.3085 -0.1212
vt -0.9950 0.1197 -0.1212
vt -0.0200 0.1197 -0.1212
vt -0.9950 0.1188 -0.0807
vt -0.0200 0.1188 -0.0807
vt -0.9950 -0.3085 -0.0313
vt -0.0200 -0.3085 -0.0313
vt -0.9950 0.1149 -0.0314
vt -0.0200 0.1149 -0.0314
vt -0.0535 0.0733 0.0291
vt -0.9950 0.0733 0.0291
vt -0.0301 0.1013 0.0058
vt -0.9950 0.1013 0.0058
vt -1.9800 -0.0085 -0.0313
vt -1.9240 -0.0085 0.0516
vt -1.9997 -0.0085 -0.0236
vt -1.9800 0.1197 -0.1212
vt -1.9800 -0.3085 -0.1212
vt -2.0633 -0.3085 -0.0872
vt -2.0633 0.1197 -0.0872
vt -1.9800 0.1188 -0.0807
vt -2.0346 0.1188 -0.0585
vt -1.9800 -0.3085 -0.0313
vt -1.9997 -0.3085 -0.0236
vt -1.9800 0.1149 -0.0314
vt -1.9998 0.1149 -0.0237
vt -1.9699 0.1013 0.0058
vt -2.0069 -0.0085 -0.0046
vt -2.0968 -0.3085 -0.0046
vt -2.0968 0.1197 -0.0046
vt -2.0563 0.1188 -0.0046
vt -2.0069 -0.3085 -0.0046
vt -2.0070 0.1149 -0.0046
vt -1.9325 0.0334 0.0432
vt -1.9325 0.0334 0.5478
vt -1.9240 -0.0085 0.5478
vt -2.0069 -0.0085 0.5478
vt -2.0968 -0.3085 0.5478
vt -2.0968 0.1197 0.5478
vt -2.0563 0.1188 0.5478
vt -2.0069 -0.3085 0.5478
vt -2.0070 0.1149 0.5478
vt -1.9465 0.0733 0.0291
vt -1.9465 0.0733 0.5478
vt -1.9699 0.1013 0.5478
vt -0.0003 -0.0085 -0.0236
vt 0.0633 0.1197 -0.0872
vt 0.0633 -0.3085 -0.0872
vt 0.0346 0.1188 -0.0585
vt -0.0003 -0.3085 -0.0236
vt -0.0002 0.1149 -0.0237
vt 0.0069 -0.0085 -0.0046
vt 0.0968 0.1197 -0.0046
vt 0.0968 -0.3085 -0.0046
vt 0.0563 0.1188 -0.0046
vt 0.0069 -0.3085 -0.0046
vt 0.0070 0.1149 -0.0046
vt -0.0760 -0.0085 0.7733
vt -0.0675 0.0334 0.7733
vt 0.0069 -0.0085 0.7733
vt 0.0968 0.1197 0.7733
vt 0.0968 -0.3085 0.7733
vt 0.0563 0.1188 0.7733
vt 0.0069 -0.3085 0.7733
vt 0.0070 0.1149 0.7733
vt -0.0535 0.0733 0.7733
vt -0.0301 0.1013 0.7733
vt -1.0050 0.0334 0.0432
vt -1.0050 -0.0085 0.0516
vt -1.0050 -0.0085 -0.0313
vt -1.0050 0.1197 -0.1212
vt -1.0050 -0.3085 -0.1212
vt -1.0050 0.1188 -0.0807
vt -1.0050 -0.3085 -0.0313
vt -1.0050 0.1149 -0.0314
vt -1.0050 0.0733 0.0291
vt -1.0050 0.1013 0.0058
vt -1.0000 -0.0022 0.0439
vt -1.0000 0.0307 0.0335
vt -1.0000 -0.0014 -0.0383
vt -1.0000 0.1126 -0.1142
vt -1.0000 -0.3014 -0.1141
vt -1.0000 0.1088 -0.0812
vt -1.0000 -0.3014 -0.0383
vt -1.0000 0.1052 -0.0335
vt -1.0000 0.0683 0.0204
vt -1.0000 0.0932 -0.0000
# 127 texture coords

g sofa_02
usemtl Material__12804
s 1
f 1/1/1 2/2/2 3/3/3 4/4/4 
f 5/1/5 6/2/6 7/3/7 8/4/8 
f 9/1/9 10/2/2 11/3/3 12/4/10 
f 13/1/11 14/2/12 15/3/13 16/4/14 
f 17/1/5 18/2/15 19/3/16 20/4/8 
f 8/4/8 21/5/17 22/5/18 
f 23/1/19 24/6/20 25/7/21 26/7/22 
f 20/4/8 27/5/17 28/5/18 
f 29/4/23 30/5/24 31/5/25 
f 32/8/26 2/9/2 1/10/1 33/11/27 
f 34/12/28 3/13/3 2/14/2 35/15/29 
f 22/16/18 29/17/23 23/18/19 36/19/30 
f 37/8/26 10/9/2 9/10/9 38/11/31 
f 39/12/32 11/13/3 10/14/2 40/15/29 
f 41/8/33 12/9/10 11/10/3 42/11/34 
f 28/16/18 15/17/13 14/18/12 43/19/30 
f 31/16/25 19/17/16 18/18/15 24/19/20 
f 36/20/30 44/7/35 45/21/36 5/22/5 
f 23/23/19 26/7/22 44/7/35 36/20/30 
f 8/4/8 35/24/29 21/5/17 
f 32/25/26 21/5/17 35/24/29 2/26/2 
f 29/27/23 22/5/18 21/5/17 32/25/26 
f 46/28/37 25/7/21 24/6/20 18/29/15 
f 43/20/30 47/7/38 48/21/36 17/22/5 
f 14/23/12 49/7/39 47/7/38 43/20/30 
f 20/4/8 40/24/29 27/5/17 
f 37/25/26 27/5/17 40/24/29 10/26/2 
f 15/27/13 28/5/18 27/5/17 37/25/26 
f 29/4/23 42/24/34 30/5/24 
f 39/25/32 30/5/24 42/24/34 11/26/3 
f 19/27/16 31/5/25 30/5/24 39/25/32 
f 5/1/5 45/30/36 50/31/40 6/2/6 
f 29/3/23 32/8/26 33/11/27 51/4/41 
f 7/3/7 34/12/28 35/15/29 8/4/8 
f 8/4/8 22/16/18 36/19/30 5/1/5 
f 17/1/5 48/30/36 46/31/37 18/2/15 
f 13/1/11 52/32/42 49/33/39 14/2/12 
f 15/3/13 37/8/26 38/11/31 16/4/14 
f 19/3/16 39/12/32 40/15/29 20/4/8 
f 51/3/41 41/8/33 42/11/34 29/4/23 
f 20/4/8 28/16/18 43/19/30 17/1/5 
f 29/4/23 31/16/25 24/19/20 23/1/19 
f 53/34/43 54/35/44 55/36/45 56/37/46 
f 53/34/43 56/37/46 57/38/47 58/39/48 
f 59/40/49 60/41/50 61/42/51 62/43/52 
f 62/43/52 61/42/51 63/44/53 64/45/54 
f 58/39/48 57/38/47 65/46/55 66/47/56 
f 64/45/54 63/44/53 67/48/57 68/49/58 
f 54/35/44 69/50/59 70/51/60 55/36/45 
f 71/52/61 68/49/58 67/48/57 72/53/62 
f 69/50/59 71/52/61 72/53/62 70/51/60 
f 73/54/63 74/55/64 75/56/65 
f 76/57/66 77/58/67 78/59/68 79/60/69 
f 80/61/70 76/57/66 79/60/69 81/62/71 
f 82/63/72 73/54/63 75/56/65 83/64/73 
f 84/65/74 80/61/70 81/62/71 85/66/75 
f 86/67/76 84/65/74 85/66/75 
f 75/56/65 74/55/64 87/68/77 
f 79/60/69 78/59/68 88/69/78 89/70/79 
f 81/62/71 79/60/69 89/70/79 90/71/80 
f 83/64/73 75/56/65 87/68/77 91/72/81 
f 85/66/75 81/62/71 90/71/80 92/73/82 
f 85/66/75 92/73/82 86/67/76 
f 74/55/64 93/74/83 94/75/84 95/76/85 
f 87/68/77 74/55/64 95/76/85 96/77/86 
f 89/70/79 88/69/78 97/78/87 98/79/88 
f 90/71/80 89/70/79 98/79/88 99/80/89 
f 91/72/81 87/68/77 96/77/86 100/81/90 
f 92/73/82 90/71/80 99/80/89 101/82/91 
f 93/74/83 102/83/92 103/84/93 94/75/84 
f 86/67/76 92/73/82 101/82/91 104/85/94 
f 102/83/92 86/67/76 104/85/94 103/84/93 
f 103/84/93 96/77/86 95/76/85 94/75/84 
f 58/39/48 105/86/95 53/34/43 
f 62/43/52 106/87/96 107/88/97 59/40/49 
f 64/45/54 108/89/98 106/87/96 62/43/52 
f 66/47/56 109/90/99 105/86/95 58/39/48 
f 68/49/58 110/91/100 108/89/98 64/45/54 
f 71/52/61 110/91/100 68/49/58 
f 105/86/95 111/92/101 53/34/43 
f 106/87/96 112/93/102 113/94/103 107/88/97 
f 108/89/98 114/95/104 112/93/102 106/87/96 
f 109/90/99 115/96/105 111/92/101 105/86/95 
f 110/91/100 116/97/106 114/95/104 108/89/98 
f 110/91/100 71/52/61 116/97/106 
f 53/34/43 117/98/107 118/99/108 54/35/44 
f 111/92/101 119/100/109 117/98/107 53/34/43 
f 112/93/102 120/101/110 121/102/111 113/94/103 
f 114/95/104 122/103/112 120/101/110 112/93/102 
f 115/96/105 123/104/113 119/100/109 111/92/101 
f 116/97/106 124/105/114 122/103/112 114/95/104 
f 54/35/44 118/99/108 125/106/115 69/50/59 
f 71/52/61 126/107/116 124/105/114 116/97/106 
f 69/50/59 125/106/115 126/107/116 71/52/61 
f 117/98/107 119/100/109 125/106/115 118/99/108 
f 127/108/117 93/74/83 74/55/64 128/109/118 
f 74/55/64 73/54/63 129/110/119 128/109/118 
f 77/58/67 76/57/66 130/111/120 131/112/121 
f 76/57/66 80/61/70 132/113/122 130/111/120 
f 73/54/63 82/63/72 133/114/123 129/110/119 
f 80/61/70 84/65/74 134/115/124 132/113/122 
f 135/116/125 102/83/92 93/74/83 127/108/117 
f 134/115/124 84/65/74 86/67/76 136/117/126 
f 136/117/126 86/67/76 102/83/92 135/116/125 
f 137/118/127 56/37/46 55/36/45 138/119/128 
f 139/120/129 57/38/47 56/37/46 137/118/127 
f 140/121/130 61/42/51 60/41/50 141/122/131 
f 142/123/132 63/44/53 61/42/51 140/121/130 
f 143/124/133 65/46/55 57/38/47 139/120/129 
f 144/125/134 67/48/57 63/44/53 142/123/132 
f 138/119/128 55/36/45 70/51/60 145/126/135 
f 146/127/136 72/53/62 67/48/57 144/125/134 
f 145/126/135 70/51/60 72/53/62 146/127/136 
f 138/119/128 127/108/117 128/109/118 137/118/127 
f 137/118/127 128/109/118 129/110/119 139/120/129 
f 141/122/131 131/112/121 130/111/120 140/121/130 
f 140/121/130 130/111/120 132/113/122 142/123/132 
f 139/120/129 129/110/119 133/114/123 143/124/133 
f 142/123/132 132/113/122 134/115/124 144/125/134 
f 145/126/135 135/116/125 127/108/117 138/119/128 
f 144/125/134 134/115/124 136/117/126 146/127/136 
f 146/127/136 136/117/126 135/116/125 145/126/135 
usemtl Material__12803
s off
f 147/93/41 148/101/41 149/102/41 150/94/41 
f 151/93/41 152/101/41 153/101/41 154/93/41 
f 152/101/137 155/102/137 156/102/137 153/101/137 
f 157/94/138 151/93/138 154/93/138 158/94/138 
f 154/93/139 153/101/139 148/101/139 147/93/139 
f 153/101/140 156/102/140 149/102/140 148/101/140 
f 156/102/141 158/94/141 150/94/141 149/102/141 
f 158/94/142 154/93/142 147/93/142 150/94/142 
f 159/93/41 160/94/41 161/102/41 162/101/41 
f 151/93/143 159/93/143 162/101/143 152/101/143 
f 152/101/144 162/101/144 161/102/144 155/102/144 
f 155/102/145 161/102/145 160/94/145 157/94/145 
f 157/94/142 160/94/142 159/93/142 151/93/142 
usemtl Material__12743
f 163/93/145 164/101/145 165/101/145 166/93/145 
f 167/93/146 168/101/146 169/101/146 170/93/146 
f 171/93/147 172/101/147 164/101/147 163/93/147 
f 172/101/133 173/101/133 165/101/133 164/101/133 
f 173/101/148 174/93/148 166/93/148 165/101/148 
f 174/93/142 171/93/142 163/93/142 166/93/142 
f 175/93/137 167/93/137 170/93/137 176/93/137 
f 176/93/149 170/93/149 169/101/149 177/101/149 
f 177/101/142 169/101/142 168/101/142 178/101/142 
f 178/101/150 168/101/150 167/93/150 175/93/150 
usemtl Material__12804
s 1
f 179/1/151 180/2/152 181/3/153 182/4/154 
f 6/4/6 50/24/40 183/5/155 184/5/156 
f 184/16/156 181/17/153 180/18/152 185/19/157 
f 185/20/157 186/7/158 34/21/28 7/22/7 
f 180/23/152 187/7/159 186/7/158 185/20/157 
f 181/27/153 184/5/156 183/5/155 188/25/160 
f 179/1/151 189/32/161 187/33/159 180/2/152 
f 181/3/153 188/8/160 190/11/162 182/4/154 
f 6/4/6 184/16/156 185/19/157 7/1/7 
f 187/8/159 189/11/161 4/10/4 3/9/3 
f 187/25/159 3/26/3 34/24/28 186/5/158 
f 97/78/87 100/81/90 96/77/86 98/79/88 
f 101/82/91 99/80/89 98/79/88 96/77/86 
f 103/84/93 104/85/94 101/82/91 96/77/86 
f 119/100/109 123/104/113 121/102/111 120/101/110 
f 120/101/110 122/103/112 124/105/114 119/100/109 
f 124/105/114 126/107/116 125/106/115 119/100/109 
# 148 polygons - 14 triangles

