# 3ds Max Wavefront OBJ Exporter v0.97b - (c)2007 guruware
# File Created: 15.12.2016 15:44:11

mtllib table.mtl

#
# object table
#

v  0.8913 0.2743 -0.1817
v  1.8459 0.2743 -0.1817
v  1.8459 0.2742 -2.0893
v  0.8913 0.2742 -2.0893
v  1.8459 0.0716 0.5048
v  1.8459 0.0716 -2.0893
v  0.8913 0.0716 0.5048
v  0.8913 0.0716 -2.0893
v  0.9335 0.3782 -0.1395
v  0.9335 0.3782 0.4626
v  1.8037 0.3782 0.4626
v  1.8037 0.3782 -0.1395
v  0.8913 0.4377 -0.1817
v  1.8459 0.4377 -0.1817
v  1.8459 0.4377 0.5048
v  0.8913 0.4377 0.5048
v  1.7989 0.3782 -2.0325
v  0.9384 0.3782 -2.0325
v  0.9384 0.3782 -0.1817
v  1.7989 0.3782 -0.1817
v  1.7989 0.2742 -2.0325
v  0.9384 0.2742 -2.0325
v  0.9335 0.4377 0.4626
v  0.9335 0.4377 -0.1395
v  1.8037 0.4377 0.4626
v  1.8037 0.4377 -0.1395
v  1.7989 0.2743 -0.1817
v  1.7989 0.2743 -0.2028
v  1.7989 0.3534 -0.2028
v  1.7989 0.3533 -2.0114
v  1.7989 0.2742 -2.0114
v  0.9384 0.2743 -0.1817
v  0.9384 0.3534 -0.2028
v  0.9384 0.2743 -0.2028
v  0.9384 0.3533 -2.0114
v  0.9384 0.2742 -2.0114
v  0.9335 0.0716 -2.0471
v  0.9335 0.0716 0.4626
v  1.8037 0.0716 -2.0471
v  1.8037 0.0716 0.4626
v  0.9335 -0.0002 -2.0471
v  0.9335 -0.0002 0.4626
v  1.8037 -0.0002 -2.0471
v  1.8037 -0.0002 0.4626
# 44 vertices

vn -0.0000 1.0000 -0.0000
vn 1.0000 0.0000 -0.0000
vn -1.0000 0.0000 0.0000
vn -0.0000 -0.0000 -1.0000
vn 0.0000 1.0000 0.0000
vn -0.0000 0.0000 -1.0000
vn 0.0000 0.0000 1.0000
vn 0.0000 1.0000 -0.0000
vn -0.0000 1.0000 0.0000
vn 1.0000 -0.0000 -0.0000
vn 0.0000 -1.0000 0.0000
vn 0.0000 -1.0000 -0.0000
vn -1.0000 -0.0000 0.0000
vn 0.0000 -0.0000 1.0000
# 14 vertex normals

vt 0.7894 0.2738 0.5224
vt 0.7894 0.7262 0.5224
vt -0.1148 0.7262 0.5224
vt -0.1148 0.2738 0.5224
vt 0.2106 0.5224 0.7262
vt -0.1148 0.4407 0.7262
vt 1.1148 0.4407 0.7262
vt 1.1148 0.5224 0.7262
vt 1.1148 0.4407 0.2738
vt 0.7894 0.5224 0.2738
vt -0.1148 0.5224 0.2738
vt -0.1148 0.4407 0.2738
vt 0.2738 0.4407 -0.1148
vt 0.7262 0.4407 -0.1148
vt 0.7262 0.5224 -0.1148
vt 0.2738 0.5224 -0.1148
vt 0.8094 0.2938 0.5642
vt 1.0948 0.2938 0.5642
vt 1.0948 0.7062 0.5642
vt 0.8094 0.7062 0.5642
vt 0.7262 0.5224 0.7894
vt 0.7262 0.5882 0.7894
vt 0.2738 0.5882 0.7894
vt 0.2738 0.5224 0.7894
vt 0.2106 0.5882 0.7262
vt -0.1148 0.5882 0.7262
vt 0.7262 0.4407 1.1148
vt 0.7262 0.5882 1.1148
vt 0.2738 0.5882 1.1148
vt 0.2738 0.4407 1.1148
vt 1.1148 0.5882 0.2738
vt 0.7894 0.5882 0.2738
vt 0.0968 0.1197 0.7733
vt 0.0968 0.1197 -0.0046
vt 0.7894 0.2738 0.5882
vt 1.1148 0.2738 0.5882
vt 1.0948 0.2938 0.5882
vt 0.8094 0.2938 0.5882
vt 1.1148 0.7262 0.5882
vt 1.0948 0.7062 0.5882
vt 0.7894 0.7262 0.5882
vt 0.8094 0.7062 0.5882
vt 0.1906 0.5882 0.2938
vt -0.0948 0.5882 0.2938
vt -0.0948 0.5642 0.2938
vt 0.1906 0.5642 0.2938
vt 0.7062 0.5882 1.0948
vt 0.2938 0.5882 1.0948
vt 0.2938 0.5642 1.0948
vt 0.7062 0.5642 1.0948
vt 1.0948 0.5882 0.7062
vt 0.8094 0.5882 0.7062
vt 0.8094 0.5642 0.7062
vt 1.0948 0.5642 0.7062
vt 0.7062 0.5882 0.8094
vt 0.2938 0.5882 0.8094
vt 0.2938 0.5642 0.8094
vt 0.7062 0.5642 0.8094
vt -0.1148 0.2738 0.4407
vt 1.1148 0.2738 0.4407
vt 1.0948 0.2938 0.4407
vt -0.0948 0.2938 0.4407
vt 1.1148 0.7262 0.4407
vt 1.0948 0.7062 0.4407
vt -0.1148 0.7262 0.4407
vt -0.0948 0.7062 0.4407
vt 1.0948 0.4407 0.2938
vt -0.0948 0.4407 0.2938
vt -0.0948 0.4118 0.2938
vt 1.0948 0.4118 0.2938
vt 0.7062 0.4407 -0.0948
vt 0.2938 0.4407 -0.0948
vt 0.2938 0.4118 -0.0948
vt 0.7062 0.4118 -0.0948
vt 1.0948 0.4407 0.7062
vt -0.0948 0.4407 0.7062
vt -0.0948 0.4118 0.7062
vt 1.0948 0.4118 0.7062
vt 0.7062 0.4407 1.0948
vt 0.2938 0.4407 1.0948
vt 0.2938 0.4118 1.0948
vt 0.7062 0.4118 1.0948
# 82 texture coords

g table
usemtl Material__12803
s off
f 1/1/1 2/2/1 3/3/1 4/4/1 
f 2/5/2 5/6/2 6/7/2 3/8/2 
f 7/9/3 1/10/3 4/11/3 8/12/3 
f 6/13/4 8/14/4 4/15/4 3/16/4 
f 9/17/5 10/18/5 11/19/5 12/20/5 
f 1/21/6 13/22/6 14/23/6 2/24/6 
f 2/5/2 14/25/2 15/26/2 5/6/2 
f 5/27/7 15/28/7 16/29/7 7/30/7 
f 7/9/3 16/31/3 13/32/3 1/10/3 
usemtl Material__12743
f 17/33/1 18/34/1 19/34/1 20/33/1 
f 18/34/4 17/33/4 21/33/4 22/34/4 
usemtl Material__12803
f 13/35/5 16/36/5 23/37/5 24/38/5 
f 16/36/8 15/39/8 25/40/8 23/37/8 
f 15/39/9 14/41/9 26/42/9 25/40/9 
f 14/41/8 13/35/8 24/38/8 26/42/8 
f 24/43/2 23/44/2 10/45/2 9/46/2 
f 23/47/6 25/48/6 11/49/6 10/50/6 
f 25/51/3 26/52/3 12/53/3 11/54/3 
f 26/55/7 24/56/7 9/57/7 12/58/7 
usemtl Material__12743
f 20/33/2 27/33/2 28/33/2 29/33/2 
f 21/33/2 17/33/2 30/33/2 31/33/2 
f 17/33/10 20/33/10 29/33/10 30/33/10 
f 32/34/3 19/34/3 33/34/3 34/34/3 
f 19/34/3 18/34/3 35/34/3 33/34/3 
f 18/34/3 22/34/3 36/34/3 35/34/3 
f 29/33/6 28/33/6 34/34/6 33/34/6 
f 31/33/7 30/33/7 35/34/7 36/34/7 
f 30/33/11 29/33/11 33/34/11 35/34/11 
usemtl Material__12803
f 7/59/12 8/60/12 37/61/12 38/62/12 
f 8/60/12 6/63/12 39/64/12 37/61/12 
f 6/63/12 5/65/12 40/66/12 39/64/12 
f 5/65/12 7/59/12 38/62/12 40/66/12 
usemtl Material__62
f 38/67/13 37/68/13 41/69/13 42/70/13 
f 37/71/6 39/72/6 43/73/6 41/74/6 
f 39/75/10 40/76/10 44/77/10 43/78/10 
f 40/79/14 38/80/14 42/81/14 44/82/14 
# 36 polygons

