# 3ds Max Wavefront OBJ Exporter v0.97b - (c)2007 guruware
# File Created: 11.01.2017 22:29:49

mtllib table.mtl

#
# object table_03
#

v  -0.4270 0.0520 -0.3432
v  -0.4270 0.0520 0.3432
v  0.4270 0.0520 0.3432
v  0.4270 0.0520 -0.3432
v  0.4270 -0.0520 -0.3432
v  -0.4270 -0.0520 -0.3432
v  -0.4270 -0.0520 0.3432
v  0.4270 -0.0520 0.3432
# 8 vertices

vn -0.0000 1.0000 -0.0000
vn -0.0000 0.0000 -1.0000
vn 0.0000 0.0000 1.0000
vn -1.0000 0.0000 0.0000
vn 1.0000 0.0000 -0.0000
# 5 vertex normals

vt 0.7894 0.5553 0.2738
vt 0.2738 0.5513 1.1148
vt -0.1148 0.5513 0.7262
vt 0.2738 0.5553 0.7894
vt 0.7262 0.5553 0.7894
vt 0.2738 0.5224 0.7894
vt 0.7262 0.5224 0.7894
vt 0.7262 0.5513 1.1148
vt 0.2738 0.5145 1.1148
vt 0.7262 0.5145 1.1148
vt 1.1148 0.5513 0.2738
vt 0.7894 0.5224 0.2738
vt 1.1148 0.5145 0.2738
vt 0.2106 0.5553 0.7262
vt -0.1148 0.5145 0.7262
vt 0.2106 0.5224 0.7262
# 16 texture coords

g table_03
usemtl Material__6
s 3
f 1/1/1 2/2/1 3/3/1 4/4/1 
s off
f 1/5/2 4/4/2 5/6/2 6/7/2 
f 3/8/3 2/2/3 7/9/3 8/10/3 
f 2/11/4 1/1/4 6/12/4 7/13/4 
f 4/14/5 3/3/5 8/15/5 5/16/5 
# 5 polygons

#
# object table_detail_02
#

v  0.0211 0.0298 0.3221
v  0.0211 0.0298 -0.3221
v  -0.0211 0.0298 -0.3221
v  -0.0211 0.0298 0.3221
v  -0.0211 -0.0298 -0.3221
v  -0.0211 -0.0298 0.3221
v  0.0211 -0.0298 0.3221
v  0.0211 -0.0298 -0.3221
# 8 vertices

vn -0.0000 1.0000 0.0000
vn -1.0000 0.0000 0.0000
vn 1.0000 -0.0000 -0.0000
vn -0.0000 0.0000 1.0000
vn -0.0000 -0.0000 -1.0000
vn 0.0000 -1.0000 -0.0000
# 6 vertex normals

vt 1.1148 0.7262 0.5882
vt 0.7894 0.7262 0.5882
vt 0.8094 0.7062 0.5882
vt 1.0948 0.7062 0.5882
vt 1.0948 0.5882 0.7062
vt 0.8094 0.5882 0.7062
vt 0.8094 0.5642 0.7062
vt 1.0948 0.5642 0.7062
vt 0.2106 0.5882 0.7262
vt -0.1148 0.5882 0.7262
vt -0.1148 0.5513 0.7262
vt 0.2106 0.5553 0.7262
vt 0.7062 0.5882 1.0948
vt 0.2938 0.5642 1.0948
vt 0.7062 0.5642 1.0948
vt 0.2938 0.5882 1.0948
# 16 texture coords

g table_detail_02
usemtl Material__6
s off
f 9/17/6 10/18/6 11/19/6 12/20/6 
f 12/21/7 11/22/7 13/23/7 14/24/7 
f 10/25/8 9/26/8 15/27/8 16/28/8 
s 1
f 14/21/9 15/24/9 9/29/9 12/30/9 
f 11/31/10 10/32/10 16/23/10 13/22/10 
s off
f 16/23/11 15/27/11 14/21/11 13/23/11 
# 6 polygons

#
# object table_02
#

v  0.3800 0.0520 -0.7236
v  -0.3800 0.0520 -0.7236
v  -0.3800 0.0520 0.7236
v  0.3800 0.0520 0.7236
v  0.3800 -0.0520 -0.7236
v  -0.3800 -0.0520 -0.7236
v  0.3800 -0.0520 0.7236
v  0.3800 -0.0520 0.7025
v  0.3800 0.0271 0.7025
v  0.3800 0.0271 -0.7025
v  0.3800 -0.0520 -0.7025
v  -0.3800 -0.0520 0.7236
v  -0.3800 0.0271 0.7025
v  -0.3800 -0.0520 0.7025
v  -0.3800 0.0271 -0.7025
v  -0.3800 -0.0520 -0.7025
# 16 vertices

vn -0.0000 1.0000 -0.0000
vn -0.0000 -0.0000 -1.0000
vn 1.0000 -0.0000 -0.0000
vn -1.0000 0.0000 0.0000
vn 0.0000 0.0000 1.0000
vn 0.0000 -1.0000 0.0000
# 6 vertex normals

vt 0.0968 0.1197 0.7733
vt 0.0968 0.1197 -0.0046
# 2 texture coords

g table_02
usemtl Material__2
s off
f 17/33/12 18/34/12 19/34/12 20/33/12 
f 18/34/13 17/33/13 21/33/13 22/34/13 
f 20/33/14 23/33/14 24/33/14 25/33/14 
f 21/33/14 17/33/14 26/33/14 27/33/14 
f 17/33/14 20/33/14 25/33/14 26/33/14 
f 28/34/15 19/34/15 29/34/15 30/34/15 
f 19/34/15 18/34/15 31/34/15 29/34/15 
f 18/34/15 22/34/15 32/34/15 31/34/15 
f 25/33/13 24/33/13 30/34/13 29/34/13 
f 27/33/16 26/33/16 31/34/16 32/34/16 
f 26/33/17 25/33/17 29/34/17 31/34/17 
# 11 polygons

#
# object table_detail_00
#

v  -0.0211 0.0298 -0.3221
v  -0.0211 0.0298 0.3221
v  0.0211 0.0298 0.3221
v  0.0211 0.0298 -0.3221
v  0.0211 -0.0298 0.3221
v  0.0211 -0.0298 -0.3221
v  -0.0211 -0.0298 -0.3221
v  -0.0211 -0.0298 0.3221
# 8 vertices

vn 0.0000 1.0000 0.0000
vn 1.0000 -0.0000 -0.0000
vn -1.0000 -0.0000 0.0000
vn 0.0000 0.0000 1.0000
vn -0.0000 0.0000 -1.0000
vn -0.0000 -0.0000 -1.0000
vn -0.0000 -1.0000 -0.0000
# 7 vertex normals

vt 0.7894 0.2738 0.5882
vt 1.1148 0.2738 0.5882
vt 1.0948 0.2938 0.5882
vt 0.8094 0.2938 0.5882
vt 0.1906 0.5882 0.2938
vt -0.0948 0.5882 0.2938
vt -0.0948 0.5642 0.2938
vt 0.1906 0.5642 0.2938
vt 1.1148 0.5882 0.2738
vt 0.7894 0.5882 0.2738
vt 0.7894 0.5553 0.2738
vt 1.1148 0.5513 0.2738
vt 0.7894 0.7262 0.5882
vt 1.1148 0.7262 0.5882
# 14 texture coords

g table_detail_00
usemtl Material__6
s off
f 33/35/18 34/36/18 35/37/18 36/38/18 
f 36/39/19 35/40/19 37/41/19 38/42/19 
f 34/43/20 33/44/20 39/45/20 40/46/20 
s 1
f 35/35/21 34/47/21 40/42/21 37/40/21 
f 38/39/22 39/41/22 33/48/22 36/47/23 
s off
f 40/42/24 39/45/24 38/39/24 37/41/24 
# 6 polygons

#
# object table_detail_01
#

v  -0.4060 0.0298 0.0211
v  0.4060 0.0298 0.0211
v  0.4060 0.0298 -0.0211
v  -0.4060 0.0298 -0.0211
v  0.4060 -0.0298 -0.0211
v  -0.4060 -0.0298 -0.0211
v  -0.4060 -0.0298 0.0211
v  0.4060 -0.0298 0.0211
# 8 vertices

vn -0.0000 1.0000 -0.0000
vn -0.0000 -0.0000 -1.0000
vn 0.0000 0.0000 1.0000
vn 1.0000 0.0000 0.0000
vn 1.0000 0.0000 -0.0000
vn 1.0000 -0.0000 -0.0000
vn -1.0000 -0.0000 -0.0000
vn 0.0000 -1.0000 0.0000
# 8 vertex normals

vt 1.1148 0.2738 0.5882
vt 1.1148 0.7262 0.5882
vt 1.0948 0.7062 0.5882
vt 1.0948 0.2938 0.5882
vt 0.7062 0.5882 1.0948
vt 0.2938 0.5882 1.0948
vt 0.2938 0.5642 1.0948
vt 0.7062 0.5642 1.0948
vt 0.7262 0.5882 1.1148
vt 0.2738 0.5882 1.1148
vt 0.2738 0.5513 1.1148
vt 0.7262 0.5513 1.1148
vt -0.1148 0.5882 0.7262
vt 1.0948 0.7062 0.5642
vt 0.2738 0.5224 0.7894
vt 0.7894 0.5224 0.2738
vt 0.7262 0.5224 0.7894
vt 0.2106 0.5224 0.7262
vt 1.0948 0.2938 0.5642
vt 0.2738 0.5882 0.7894
# 20 texture coords

g table_detail_01
usemtl Material__6
s off
f 41/49/25 42/50/25 43/51/25 44/52/25 
f 44/53/26 43/54/26 45/55/26 46/56/26 
f 42/57/27 41/58/27 47/59/27 48/60/27 
s 1
f 43/61/28 42/62/28 48/63/29 45/64/30 
f 46/65/31 47/66/31 41/67/31 44/68/31 
s off
f 48/63/32 47/59/32 46/65/32 45/55/32 
# 6 polygons

#
# object table_detail_03
#

v  0.4060 0.0298 -0.0211
v  -0.4060 0.0298 -0.0211
v  -0.4060 0.0298 0.0211
v  0.4060 0.0298 0.0211
v  -0.4060 -0.0298 0.0211
v  0.4060 -0.0298 0.0211
v  0.4060 -0.0298 -0.0211
v  -0.4060 -0.0298 -0.0211
# 8 vertices

vn -0.0000 1.0000 -0.0000
vn 0.0000 0.0000 1.0000
vn -0.0000 0.0000 -1.0000
vn -1.0000 -0.0000 0.0000
vn -1.0000 0.0000 0.0000
vn 1.0000 -0.0000 0.0000
vn 1.0000 0.0000 0.0000
vn 0.0000 -1.0000 -0.0000
# 8 vertex normals

vt 0.7894 0.7262 0.5882
vt 0.7894 0.2738 0.5882
vt 0.8094 0.2938 0.5882
vt 0.8094 0.7062 0.5882
vt 0.7062 0.5882 0.8094
vt 0.2938 0.5882 0.8094
vt 0.2938 0.5642 0.8094
vt 0.7062 0.5642 0.8094
vt 0.7262 0.5882 0.7894
vt 0.2738 0.5882 0.7894
vt 0.2738 0.5553 0.7894
vt 0.7262 0.5553 0.7894
vt 0.8094 0.2938 0.5642
vt 0.8094 0.7062 0.5642
vt 0.2738 0.5882 1.1148
# 15 texture coords

g table_detail_03
usemtl Material__6
s off
f 49/69/33 50/70/33 51/71/33 52/72/33 
f 52/73/34 51/74/34 53/75/34 54/76/34 
f 50/77/35 49/78/35 55/79/35 56/80/35 
s 1
f 51/77/36 50/81/36 56/75/36 53/73/37 
f 54/74/38 55/76/38 49/82/38 52/83/39 
s off
f 56/75/40 55/79/40 54/74/40 53/75/40 
# 6 polygons

#
# object table_01
#

v  -0.4270 0.1372 0.4088
v  0.4270 0.1372 0.4088
v  0.4270 0.1372 -1.0953
v  -0.4270 0.1372 -1.0953
v  0.4270 -0.0655 1.0953
v  0.4270 -0.0655 -1.0953
v  -0.4270 -0.0655 1.0953
v  -0.4270 -0.0655 -1.0953
v  -0.3849 -0.0655 -1.0531
v  -0.3849 -0.0655 1.0531
v  0.3849 -0.0655 -1.0531
v  0.3849 -0.0655 1.0531
v  -0.3849 -0.1372 -1.0531
v  -0.3849 -0.1372 1.0531
v  0.3849 -0.1372 -1.0531
v  0.3849 -0.1372 1.0531
v  0.4270 0.1372 1.0953
v  -0.4270 0.1372 1.0953
# 18 vertices

vn -0.0000 1.0000 -0.0000
vn 1.0000 0.0000 -0.0000
vn -1.0000 0.0000 0.0000
vn -0.0000 -0.0000 -1.0000
vn 0.0000 -1.0000 0.0000
vn 0.0000 -1.0000 -0.0000
vn -1.0000 -0.0000 0.0000
vn 0.0000 -0.0000 1.0000
vn 0.0000 0.0000 1.0000
# 9 vertex normals

vt 0.7894 0.2738 0.5224
vt 0.7894 0.7262 0.5224
vt -0.1148 0.7262 0.5224
vt -0.1148 0.2738 0.5224
vt 0.2106 0.5224 0.7262
vt -0.1148 0.4407 0.7262
vt 1.1148 0.4407 0.7262
vt 1.1148 0.5224 0.7262
vt 1.1148 0.4407 0.2738
vt 0.7894 0.5224 0.2738
vt -0.1148 0.5224 0.2738
vt -0.1148 0.4407 0.2738
vt 0.2738 0.4407 -0.1148
vt 0.7262 0.4407 -0.1148
vt 0.7262 0.5224 -0.1148
vt 0.2738 0.5224 -0.1148
vt -0.1148 0.2738 0.4407
vt 1.1148 0.2738 0.4407
vt 1.0948 0.2938 0.4407
vt -0.0948 0.2938 0.4407
vt 1.1148 0.7262 0.4407
vt 1.0948 0.7062 0.4407
vt -0.1148 0.7262 0.4407
vt -0.0948 0.7062 0.4407
vt 1.0948 0.4407 0.2938
vt -0.0948 0.4407 0.2938
vt -0.0948 0.4118 0.2938
vt 1.0948 0.4118 0.2938
vt 0.7062 0.4407 -0.0948
vt 0.2938 0.4407 -0.0948
vt 0.2938 0.4118 -0.0948
vt 0.7062 0.4118 -0.0948
vt 1.0948 0.4407 0.7062
vt -0.0948 0.4407 0.7062
vt -0.0948 0.4118 0.7062
vt 1.0948 0.4118 0.7062
vt 0.7062 0.4407 1.0948
vt 0.2938 0.4407 1.0948
vt 0.2938 0.4118 1.0948
vt 0.7062 0.4118 1.0948
vt -0.1148 0.5145 0.7262
vt 0.7262 0.5145 1.1148
vt 0.2738 0.5145 1.1148
vt 0.2738 0.4407 1.1148
vt 0.7262 0.4407 1.1148
vt 1.1148 0.5145 0.2738
# 46 texture coords

g table_01
usemtl Material__6
s off
f 57/84/41 58/85/41 59/86/41 60/87/41 
f 58/88/42 61/89/42 62/90/42 59/91/42 
f 63/92/43 57/93/43 60/94/43 64/95/43 
f 62/96/44 64/97/44 60/98/44 59/99/44 
f 63/100/45 64/101/45 65/102/45 66/103/45 
f 64/101/45 62/104/45 67/105/45 65/102/45 
f 62/104/45 61/106/45 68/107/45 67/105/45 
f 61/106/46 63/100/46 66/103/46 68/107/46 
usemtl Material__5
f 66/108/47 65/109/47 69/110/47 70/111/47 
f 65/112/44 67/113/44 71/114/44 69/115/44 
f 67/116/42 68/117/42 72/118/42 71/119/42 
f 68/120/48 66/121/48 70/122/48 72/123/48 
usemtl Material__6
f 58/88/42 73/124/42 61/89/42 
f 73/125/49 74/126/49 63/127/49 61/128/49 
f 63/92/43 74/129/43 57/93/43 
# 13 polygons - 2 triangles

