# 3ds Max Wavefront OBJ Exporter v0.97b - (c)2007 guruware
# File Created: 09.01.2017 15:25:13

mtllib table.mtl

#
# object table_01
#

v  0.8913 0.2743 -0.2851
v  1.7454 0.2743 -0.2851
v  1.7454 0.2742 -1.7893
v  0.8913 0.2742 -1.7893
v  1.7454 0.0716 0.4013
v  1.7454 0.0716 -1.7893
v  0.8913 0.0716 0.4013
v  0.8913 0.0716 -1.7893
v  0.9335 0.0716 -1.7471
v  0.9335 0.0716 0.3591
v  1.7032 0.0716 -1.7471
v  1.7032 0.0716 0.3591
v  0.9335 -0.0002 -1.7471
v  0.9335 -0.0002 0.3591
v  1.7032 -0.0002 -1.7471
v  1.7032 -0.0002 0.3591
v  1.7454 0.2743 0.4013
v  0.8913 0.2742 0.4013
# 18 vertices

vn -0.0000 1.0000 -0.0000
vn 1.0000 0.0000 -0.0000
vn -1.0000 0.0000 0.0000
vn -0.0000 -0.0000 -1.0000
vn 0.0000 -1.0000 -0.0000
vn 0.0000 -1.0000 0.0000
vn -1.0000 -0.0000 0.0000
vn -0.0000 0.0000 -1.0000
vn 0.0000 -0.0000 1.0000
vn 0.0000 0.0000 1.0000
# 10 vertex normals

vt 0.7894 0.2738 0.5224
vt 0.7894 0.7262 0.5224
vt -0.1148 0.7262 0.5224
vt -0.1148 0.2738 0.5224
vt 0.2106 0.5224 0.7262
vt -0.1148 0.4407 0.7262
vt 1.1148 0.4407 0.7262
vt 1.1148 0.5224 0.7262
vt 1.1148 0.4407 0.2738
vt 0.7894 0.5224 0.2738
vt -0.1148 0.5224 0.2738
vt -0.1148 0.4407 0.2738
vt 0.2738 0.4407 -0.1148
vt 0.7262 0.4407 -0.1148
vt 0.7262 0.5224 -0.1148
vt 0.2738 0.5224 -0.1148
vt -0.1148 0.2738 0.4407
vt 1.1148 0.2738 0.4407
vt 1.0948 0.2938 0.4407
vt -0.0948 0.2938 0.4407
vt 1.1148 0.7262 0.4407
vt 1.0948 0.7062 0.4407
vt -0.1148 0.7262 0.4407
vt -0.0948 0.7062 0.4407
vt 1.0948 0.4407 0.2938
vt -0.0948 0.4407 0.2938
vt -0.0948 0.4118 0.2938
vt 1.0948 0.4118 0.2938
vt 0.7062 0.4407 -0.0948
vt 0.2938 0.4407 -0.0948
vt 0.2938 0.4118 -0.0948
vt 0.7062 0.4118 -0.0948
vt 1.0948 0.4407 0.7062
vt -0.0948 0.4407 0.7062
vt -0.0948 0.4118 0.7062
vt 1.0948 0.4118 0.7062
vt 0.7062 0.4407 1.0948
vt 0.2938 0.4407 1.0948
vt 0.2938 0.4118 1.0948
vt 0.7062 0.4118 1.0948
vt -0.1148 0.5145 0.7262
vt 0.7262 0.5145 1.1148
vt 0.2738 0.5145 1.1148
vt 0.2738 0.4407 1.1148
vt 0.7262 0.4407 1.1148
vt 1.1148 0.5145 0.2738
# 46 texture coords

g table_01
usemtl Material__12803
s off
f 1/1/1 2/2/1 3/3/1 4/4/1 
f 2/5/2 5/6/2 6/7/2 3/8/2 
f 7/9/3 1/10/3 4/11/3 8/12/3 
f 6/13/4 8/14/4 4/15/4 3/16/4 
f 7/17/5 8/18/5 9/19/5 10/20/5 
f 8/18/6 6/21/6 11/22/6 9/19/6 
f 6/21/5 5/23/5 12/24/5 11/22/5 
f 5/23/5 7/17/5 10/20/5 12/24/5 
usemtl Material__62
f 10/25/7 9/26/7 13/27/7 14/28/7 
f 9/29/8 11/30/8 15/31/8 13/32/8 
f 11/33/2 12/34/2 16/35/2 15/36/2 
f 12/37/9 10/38/9 14/39/9 16/40/9 
usemtl Material__12803
f 2/5/2 17/41/2 5/6/2 
f 17/42/10 18/43/10 7/44/10 5/45/10 
f 7/9/3 18/46/3 1/10/3 
# 13 polygons - 2 triangles

#
# object table_02
#

v  1.6984 0.3782 -1.7324
v  0.9384 0.3782 -1.7324
v  0.9384 0.3782 -0.2851
v  1.6984 0.3782 -0.2851
v  1.6984 0.2742 -1.7324
v  0.9384 0.2742 -1.7324
v  1.6984 0.2743 -0.2851
v  1.6984 0.2743 -0.3062
v  1.6984 0.3534 -0.3062
v  1.6984 0.3533 -1.7113
v  1.6984 0.2742 -1.7113
v  0.9384 0.2743 -0.2851
v  0.9384 0.3534 -0.3062
v  0.9384 0.2743 -0.3062
v  0.9384 0.3533 -1.7113
v  0.9384 0.2742 -1.7113
# 16 vertices

vn -0.0000 1.0000 -0.0000
vn -0.0000 -0.0000 -1.0000
vn 1.0000 0.0000 -0.0000
vn 1.0000 -0.0000 -0.0000
vn -1.0000 0.0000 0.0000
vn -0.0000 0.0000 -1.0000
vn 0.0000 0.0000 1.0000
vn 0.0000 -1.0000 0.0000
# 8 vertex normals

vt 0.0968 0.1197 0.7733
vt 0.0968 0.1197 -0.0046
# 2 texture coords

g table_02
usemtl Material__12743
s off
f 19/47/11 20/48/11 21/48/11 22/47/11 
f 20/48/12 19/47/12 23/47/12 24/48/12 
f 22/47/13 25/47/13 26/47/13 27/47/13 
f 23/47/14 19/47/14 28/47/14 29/47/14 
f 19/47/14 22/47/14 27/47/14 28/47/14 
f 30/48/15 21/48/15 31/48/15 32/48/15 
f 21/48/15 20/48/15 33/48/15 31/48/15 
f 20/48/15 24/48/15 34/48/15 33/48/15 
f 27/47/16 26/47/16 32/48/16 31/48/16 
f 29/47/17 28/47/17 33/48/17 34/48/17 
f 28/47/18 27/47/18 31/48/18 33/48/18 
# 11 polygons

#
# object table_03
#

v  0.8913 0.3782 -0.2851
v  0.8913 0.3782 0.4013
v  1.7454 0.3782 0.4013
v  1.7454 0.3782 -0.2851
v  1.7454 0.2743 -0.2851
v  0.8913 0.2743 -0.2851
v  0.8913 0.2742 0.4013
v  1.7454 0.2743 0.4013
# 8 vertices

vn -0.0000 1.0000 0.0000
vn -0.0000 0.0000 -1.0000
vn 0.0000 0.0000 1.0000
vn -1.0000 0.0000 0.0000
vn 1.0000 0.0000 -0.0000
# 5 vertex normals

vt 0.7894 0.5553 0.2738
vt 0.2738 0.5513 1.1148
vt -0.1148 0.5513 0.7262
vt 0.2738 0.5553 0.7894
vt 0.7262 0.5553 0.7894
vt 0.2738 0.5224 0.7894
vt 0.7262 0.5224 0.7894
vt 0.7262 0.5513 1.1148
vt 0.2738 0.5145 1.1148
vt 0.7262 0.5145 1.1148
vt 1.1148 0.5513 0.2738
vt 0.7894 0.5224 0.2738
vt 1.1148 0.5145 0.2738
vt 0.2106 0.5553 0.7262
vt -0.1148 0.5145 0.7262
vt 0.2106 0.5224 0.7262
# 16 texture coords

g table_03
usemtl Material__12803
s 3
f 35/49/19 36/50/19 37/51/19 38/52/19 
s off
f 35/53/20 38/52/20 39/54/20 40/55/20 
f 37/56/21 36/50/21 41/57/21 42/58/21 
f 36/59/22 35/49/22 40/60/22 41/61/22 
f 38/62/23 37/51/23 42/63/23 39/64/23 
# 5 polygons

#
# object table_detal_03
#

v  1.7032 0.4377 -0.2851
v  0.8913 0.4377 -0.2851
v  0.8913 0.4377 -0.2429
v  1.7032 0.4377 -0.2429
v  0.8913 0.3782 -0.2429
v  1.7032 0.3782 -0.2429
v  1.7032 0.3782 -0.2851
v  0.8913 0.3782 -0.2851
# 8 vertices

vn 0.0000 1.0000 -0.0000
vn 0.0000 0.0000 1.0000
vn -0.0000 0.0000 -1.0000
vn -1.0000 -0.0000 0.0000
vn -1.0000 0.0000 0.0000
vn 1.0000 -0.0000 0.0000
vn 1.0000 0.0000 0.0000
vn 0.0000 -1.0000 -0.0000
# 8 vertex normals

vt 0.7894 0.7262 0.5882
vt 0.7894 0.2738 0.5882
vt 0.8094 0.2938 0.5882
vt 0.8094 0.7062 0.5882
vt 0.7062 0.5882 0.8094
vt 0.2938 0.5882 0.8094
vt 0.2938 0.5642 0.8094
vt 0.7062 0.5642 0.8094
vt 0.7262 0.5882 0.7894
vt 0.2738 0.5882 0.7894
vt 0.2738 0.5553 0.7894
vt 0.7262 0.5553 0.7894
vt 0.8094 0.2938 0.5642
vt 0.8094 0.7062 0.5642
vt 0.2738 0.5882 1.1148
# 15 texture coords

g table_detal_03
usemtl Material__12803
s off
f 43/65/24 44/66/24 45/67/24 46/68/24 
f 46/69/25 45/70/25 47/71/25 48/72/25 
f 44/73/26 43/74/26 49/75/26 50/76/26 
s 1
f 45/73/27 44/77/27 50/71/27 47/69/28 
f 48/70/29 49/72/29 43/78/29 46/79/30 
s off
f 50/71/31 49/75/31 48/70/31 47/71/31 
# 6 polygons

#
# object table_detal_02
#

v  1.7454 0.4377 0.3591
v  1.7454 0.4377 -0.2851
v  1.7032 0.4377 -0.2851
v  1.7032 0.4377 0.3591
v  1.7032 0.3782 -0.2851
v  1.7032 0.3782 0.3591
v  1.7454 0.3782 0.3591
v  1.7454 0.3782 -0.2851
# 8 vertices

vn -0.0000 1.0000 0.0000
vn -1.0000 0.0000 0.0000
vn 1.0000 0.0000 -0.0000
vn -0.0000 -0.0000 1.0000
vn -0.0000 0.0000 1.0000
vn -0.0000 0.0000 -1.0000
vn 0.0000 -1.0000 -0.0000
# 7 vertex normals

vt 1.1148 0.7262 0.5882
vt 0.7894 0.7262 0.5882
vt 0.8094 0.7062 0.5882
vt 1.0948 0.7062 0.5882
vt 1.0948 0.5882 0.7062
vt 0.8094 0.5882 0.7062
vt 0.8094 0.5642 0.7062
vt 1.0948 0.5642 0.7062
vt 0.2106 0.5882 0.7262
vt -0.1148 0.5882 0.7262
vt -0.1148 0.5513 0.7262
vt 0.2106 0.5553 0.7262
vt 0.7062 0.5882 1.0948
vt 0.2938 0.5642 1.0948
vt 0.7062 0.5642 1.0948
vt 0.2938 0.5882 1.0948
# 16 texture coords

g table_detal_02
usemtl Material__12803
s off
f 51/80/32 52/81/32 53/82/32 54/83/32 
f 54/84/33 53/85/33 55/86/33 56/87/33 
f 52/88/34 51/89/34 57/90/34 58/91/34 
s 1
f 56/84/35 57/87/35 51/92/35 54/93/36 
f 53/94/37 52/95/37 58/86/37 55/85/37 
s off
f 58/86/38 57/90/38 56/84/38 55/86/38 
# 6 polygons

#
# object table_detal_01
#

v  0.9335 0.4377 0.4013
v  1.7454 0.4377 0.4013
v  1.7454 0.4377 0.3591
v  0.9335 0.4377 0.3591
v  1.7454 0.3782 0.3591
v  0.9335 0.3782 0.3591
v  0.9335 0.3782 0.4013
v  1.7454 0.3782 0.4013
# 8 vertices

vn 0.0000 1.0000 -0.0000
vn -0.0000 0.0000 -1.0000
vn 0.0000 0.0000 1.0000
vn 1.0000 0.0000 0.0000
vn 1.0000 0.0000 -0.0000
vn -1.0000 0.0000 -0.0000
vn 0.0000 -1.0000 0.0000
# 7 vertex normals

vt 1.1148 0.2738 0.5882
vt 1.1148 0.7262 0.5882
vt 1.0948 0.7062 0.5882
vt 1.0948 0.2938 0.5882
vt 0.7062 0.5882 1.0948
vt 0.2938 0.5882 1.0948
vt 0.2938 0.5642 1.0948
vt 0.7062 0.5642 1.0948
vt 0.7262 0.5882 1.1148
vt 0.2738 0.5882 1.1148
vt 0.2738 0.5513 1.1148
vt 0.7262 0.5513 1.1148
vt -0.1148 0.5882 0.7262
vt 1.0948 0.7062 0.5642
vt 0.2738 0.5224 0.7894
vt 0.7894 0.5224 0.2738
vt 0.7262 0.5224 0.7894
vt 0.2106 0.5224 0.7262
vt 1.0948 0.2938 0.5642
vt 0.2738 0.5882 0.7894
# 20 texture coords

g table_detal_01
usemtl Material__12803
s off
f 59/96/39 60/97/39 61/98/39 62/99/39 
f 62/100/40 61/101/40 63/102/40 64/103/40 
f 60/104/41 59/105/41 65/106/41 66/107/41 
s 1
f 61/108/42 60/109/42 66/110/43 63/111/43 
f 64/112/44 65/113/44 59/114/44 62/115/44 
s off
f 66/110/45 65/106/45 64/112/45 63/102/45 
# 6 polygons

#
# object table_detal_00
#

v  0.8913 0.4377 -0.2429
v  0.8913 0.4377 0.4013
v  0.9335 0.4377 0.4013
v  0.9335 0.4377 -0.2429
v  0.9335 0.3782 0.4013
v  0.9335 0.3782 -0.2429
v  0.8913 0.3782 -0.2429
v  0.8913 0.3782 0.4013
# 8 vertices

vn 0.0000 1.0000 0.0000
vn 1.0000 0.0000 -0.0000
vn -1.0000 -0.0000 0.0000
vn 0.0000 0.0000 1.0000
vn -0.0000 0.0000 -1.0000
vn -0.0000 -1.0000 -0.0000
# 6 vertex normals

vt 0.7894 0.2738 0.5882
vt 1.1148 0.2738 0.5882
vt 1.0948 0.2938 0.5882
vt 0.8094 0.2938 0.5882
vt 0.1906 0.5882 0.2938
vt -0.0948 0.5882 0.2938
vt -0.0948 0.5642 0.2938
vt 0.1906 0.5642 0.2938
vt 1.1148 0.5882 0.2738
vt 0.7894 0.5882 0.2738
vt 0.7894 0.5553 0.2738
vt 1.1148 0.5513 0.2738
vt 0.7894 0.7262 0.5882
vt 1.1148 0.7262 0.5882
# 14 texture coords

g table_detal_00
usemtl Material__12803
s off
f 67/116/46 68/117/46 69/118/46 70/119/46 
f 70/120/47 69/121/47 71/122/47 72/123/47 
f 68/124/48 67/125/48 73/126/48 74/127/48 
s 1
f 69/116/49 68/128/49 74/123/49 71/121/49 
f 72/120/50 73/122/50 67/129/50 70/128/50 
s off
f 74/123/51 73/126/51 72/120/51 71/122/51 
# 6 polygons

