# 3ds Max Wavefront OBJ Exporter v0.97b - (c)2007 guruware
# File Created: 09.12.2016 14:16:59

mtllib box_anim.mtl

#
# object BoxSingle
#

v  1.0000 0.0000 -1.0000
v  1.0000 0.0000 1.0000
v  -1.0000 0.0000 1.0000
v  -1.0000 0.0000 -1.0000
v  1.0000 6.0000 -1.0000
v  -1.0000 6.0000 -1.0000
v  -1.0000 6.0000 1.0000
v  1.0000 6.0000 1.0000
v  -1.0000 3.0000 1.0000
v  1.0000 3.0000 1.0000
v  1.0000 3.5000 1.0000
v  -1.0000 3.5000 1.0000
v  1.0000 3.0000 -1.0000
v  1.0000 3.5000 -1.0000
v  -1.0000 3.0000 -1.0000
v  -1.0000 3.5000 -1.0000
v  -1.0000 1.0000 1.0000
v  1.0000 1.0000 1.0000
v  1.0000 1.5000 1.0000
v  -1.0000 1.5000 1.0000
v  1.0000 5.0000 1.0000
v  -1.0000 5.0000 1.0000
v  -1.0000 4.5000 1.0000
v  1.0000 4.5000 1.0000
v  1.0000 1.0000 -1.0000
v  1.0000 1.5000 -1.0000
v  1.0000 5.0000 -1.0000
v  1.0000 4.5000 -1.0000
v  -1.0000 1.0000 -1.0000
v  -1.0000 1.5000 -1.0000
v  -1.0000 5.0000 -1.0000
v  -1.0000 4.5000 -1.0000
v  -1.0000 2.0000 1.0000
v  1.0000 2.0000 1.0000
v  1.0000 2.5000 1.0000
v  -1.0000 2.5000 1.0000
v  1.0000 4.0000 1.0000
v  -1.0000 4.0000 1.0000
v  1.0000 2.0000 -1.0000
v  1.0000 2.5000 -1.0000
v  1.0000 4.0000 -1.0000
v  -1.0000 2.0000 -1.0000
v  -1.0000 2.5000 -1.0000
v  -1.0000 4.0000 -1.0000
v  1.0000 0.5000 1.0000
v  -1.0000 0.5000 1.0000
v  -1.0000 5.5000 1.0000
v  1.0000 5.5000 1.0000
v  1.0000 0.5000 -1.0000
v  1.0000 5.5000 -1.0000
v  -1.0000 0.5000 -1.0000
v  -1.0000 5.5000 -1.0000
# 52 vertices

vn 0.0000 -1.0000 -0.0000
vn 0.0000 1.0000 -0.0000
vn 0.0000 0.0000 1.0000
vn 1.0000 0.0000 -0.0000
vn 0.0000 0.0000 -1.0000
vn -1.0000 0.0000 -0.0000
# 6 vertex normals

vt 0.0000 1.0000 -1.0000
vt 0.0000 0.0000 -1.0000
vt 1.0000 0.0000 -1.0000
vt 1.0000 1.0000 -1.0000
vt 1.0000 1.0000 2.0000
vt 0.0000 1.0000 2.0000
vt 0.0000 0.0000 2.0000
vt 1.0000 0.0000 2.0000
vt 0.0000 0.5000 0.0000
vt 1.0000 0.5000 0.0000
vt 1.0000 0.7500 0.0000
vt 0.0000 0.7500 0.0000
vt 0.0000 0.5000 1.0000
vt 1.0000 0.5000 1.0000
vt 1.0000 0.7500 1.0000
vt 0.0000 0.7500 1.0000
vt -0.0000 0.5000 0.0000
vt -0.0000 0.7500 0.0000
vt 0.0000 -0.5000 0.0000
vt 1.0000 -0.5000 0.0000
vt 1.0000 -0.2500 0.0000
vt 0.0000 -0.2500 0.0000
vt 1.0000 1.5000 0.0000
vt 0.0000 1.5000 0.0000
vt 0.0000 1.2500 0.0000
vt 1.0000 1.2500 0.0000
vt 0.0000 -0.5000 1.0000
vt 1.0000 -0.5000 1.0000
vt 1.0000 -0.2500 1.0000
vt 0.0000 -0.2500 1.0000
vt 1.0000 1.5000 1.0000
vt 0.0000 1.5000 1.0000
vt 0.0000 1.2500 1.0000
vt 1.0000 1.2500 1.0000
vt -0.0000 -0.5000 0.0000
vt -0.0000 -0.2500 0.0000
vt -0.0000 1.5000 0.0000
vt -0.0000 1.2500 0.0000
vt 0.0000 0.0000 0.0000
vt 1.0000 0.0000 0.0000
vt 1.0000 0.2500 0.0000
vt 0.0000 0.2500 0.0000
vt 1.0000 1.0000 0.0000
vt 0.0000 1.0000 0.0000
vt 0.0000 0.0000 1.0000
vt 1.0000 0.0000 1.0000
vt 1.0000 0.2500 1.0000
vt 0.0000 0.2500 1.0000
vt 1.0000 1.0000 1.0000
vt 0.0000 1.0000 1.0000
vt -0.0000 0.0000 0.0000
vt -0.0000 0.2500 0.0000
vt -0.0000 1.0000 0.0000
vt 0.0000 -1.0000 0.0000
vt 1.0000 -1.0000 0.0000
vt 1.0000 -0.7500 0.0000
vt 0.0000 -0.7500 0.0000
vt 1.0000 2.0000 0.0000
vt 0.0000 2.0000 0.0000
vt 0.0000 1.7500 0.0000
vt 1.0000 1.7500 0.0000
vt 0.0000 -1.0000 1.0000
vt 1.0000 -1.0000 1.0000
vt 1.0000 -0.7500 1.0000
vt 0.0000 -0.7500 1.0000
vt 1.0000 2.0000 1.0000
vt 0.0000 2.0000 1.0000
vt 0.0000 1.7500 1.0000
vt 1.0000 1.7500 1.0000
vt -0.0000 -1.0000 0.0000
vt -0.0000 -0.7500 0.0000
vt -0.0000 2.0000 0.0000
vt -0.0000 1.7500 0.0000
# 73 texture coords

g BoxSingle
usemtl Material__17
s 2
f 1/1/1 2/2/1 3/3/1 4/4/1 
s 4
f 5/5/2 6/6/2 7/7/2 8/8/2 
s 8
f 9/9/3 10/10/3 11/11/3 12/12/3 
s 16
f 10/13/4 13/14/4 14/15/4 11/16/4 
s 32
f 13/13/5 15/14/5 16/15/5 14/16/5 
s 64
f 15/17/6 9/10/6 12/11/6 16/18/6 
s 8
f 17/19/3 18/20/3 19/21/3 20/22/3 
f 21/23/3 22/24/3 23/25/3 24/26/3 
s 16
f 18/27/4 25/28/4 26/29/4 19/30/4 
f 27/31/4 21/32/4 24/33/4 28/34/4 
s 32
f 25/27/5 29/28/5 30/29/5 26/30/5 
f 31/31/5 27/32/5 28/33/5 32/34/5 
s 64
f 29/35/6 17/20/6 20/21/6 30/36/6 
f 22/23/6 31/37/6 32/38/6 23/26/6 
s 8
f 33/39/3 34/40/3 35/41/3 36/42/3 
f 36/42/3 35/41/3 10/10/3 9/9/3 
f 37/43/3 38/44/3 12/12/3 11/11/3 
s 16
f 34/45/4 39/46/4 40/47/4 35/48/4 
f 35/48/4 40/47/4 13/14/4 10/13/4 
f 41/49/4 37/50/4 11/16/4 14/15/4 
s 32
f 39/45/5 42/46/5 43/47/5 40/48/5 
f 40/48/5 43/47/5 15/14/5 13/13/5 
f 44/49/5 41/50/5 14/16/5 16/15/5 
s 64
f 42/51/6 33/40/6 36/41/6 43/52/6 
f 43/52/6 36/41/6 9/10/6 15/17/6 
f 38/43/6 44/53/6 16/18/6 12/11/6 
s 8
f 3/54/3 2/55/3 45/56/3 46/57/3 
f 46/57/3 45/56/3 18/20/3 17/19/3 
f 34/40/3 33/39/3 20/22/3 19/21/3 
f 8/58/3 7/59/3 47/60/3 48/61/3 
f 48/61/3 47/60/3 22/24/3 21/23/3 
f 38/44/3 37/43/3 24/26/3 23/25/3 
s 16
f 2/62/4 1/63/4 49/64/4 45/65/4 
f 45/65/4 49/64/4 25/28/4 18/27/4 
f 39/46/4 34/45/4 19/30/4 26/29/4 
f 5/66/4 8/67/4 48/68/4 50/69/4 
f 50/69/4 48/68/4 21/32/4 27/31/4 
f 37/50/4 41/49/4 28/34/4 24/33/4 
s 32
f 1/62/5 4/63/5 51/64/5 49/65/5 
f 49/65/5 51/64/5 29/28/5 25/27/5 
f 42/46/5 39/45/5 26/30/5 30/29/5 
f 6/66/5 5/67/5 50/68/5 52/69/5 
f 52/69/5 50/68/5 27/32/5 31/31/5 
f 41/50/5 44/49/5 32/34/5 28/33/5 
s 64
f 4/70/6 3/55/6 46/56/6 51/71/6 
f 51/71/6 46/56/6 17/20/6 29/35/6 
f 33/40/6 42/51/6 30/36/6 20/21/6 
f 7/58/6 6/72/6 52/73/6 47/61/6 
f 47/61/6 52/73/6 31/37/6 22/23/6 
f 44/53/6 38/43/6 23/26/6 32/38/6 
# 50 polygons

